<?xml version="1.0" encoding="UTF-8" ?>
<!DOCTYPE svg PUBLIC "-//W3C//DTD SVG 1.1//EN" "http://www.w3.org/Graphics/SVG/1.1/DTD/svg11.dtd">
<svg width="500pt" height="500pt" viewBox="0 0 500 500" version="1.1" xmlns="http://www.w3.org/2000/svg">
<g id="#ffffffff">
<path fill="#ffffff" opacity="1.00" d=" M 0.00 0.00 L 500.00 0.00 L 500.00 500.00 L 0.00 500.00 L 0.00 0.00 M 177.42 18.68 C 176.87 26.65 177.56 34.66 177.08 42.65 C 178.86 42.90 179.09 41.59 178.86 39.95 C 180.99 41.88 183.96 44.11 186.95 42.64 C 193.95 40.52 194.03 28.61 186.94 26.54 C 183.84 25.35 180.80 27.17 178.68 29.32 C 178.04 25.93 180.39 21.24 177.42 18.68 M 245.81 29.10 C 243.49 27.14 240.45 25.29 237.34 26.62 C 230.58 29.06 230.79 40.64 237.78 42.68 C 240.40 44.02 243.02 42.05 245.16 40.71 C 243.64 39.75 241.93 40.33 240.80 41.60 C 239.10 41.34 237.47 40.83 235.87 40.24 C 233.92 37.13 233.08 32.58 235.74 29.62 C 236.86 28.39 238.55 28.04 240.03 27.42 C 241.50 28.07 243.20 28.50 244.23 29.85 C 246.45 31.86 245.62 35.09 245.81 37.72 L 244.67 37.37 C 245.05 39.08 245.64 40.73 246.11 42.42 L 247.28 42.88 C 247.26 34.69 247.64 26.47 247.04 18.29 C 244.57 21.32 246.23 25.56 245.81 29.10 M 282.80 29.09 C 280.47 27.13 277.42 25.28 274.30 26.63 C 267.53 29.12 267.82 40.78 274.89 42.71 C 277.43 43.99 279.87 42.01 282.03 40.91 C 281.19 40.45 280.36 40.01 279.52 39.57 L 279.97 41.09 C 277.52 41.75 275.09 41.34 272.88 40.20 C 270.91 37.11 270.09 32.58 272.73 29.63 C 273.86 28.39 275.55 28.04 277.03 27.42 C 282.27 28.32 284.58 34.65 281.65 38.93 C 282.13 40.19 282.69 41.40 283.31 42.60 L 284.32 42.66 C 284.23 35.10 284.60 27.52 284.15 19.99 C 283.86 19.60 283.28 18.82 282.99 18.43 C 282.63 21.97 282.77 25.54 282.80 29.09 M 347.45 18.58 C 346.87 26.51 347.52 34.47 347.08 42.41 C 347.69 42.41 348.30 42.41 348.92 42.41 C 348.79 38.99 348.58 35.55 348.89 32.14 C 349.45 28.54 353.93 27.12 356.94 28.67 C 359.70 32.74 357.95 38.02 358.44 42.62 C 358.87 42.57 359.72 42.45 360.14 42.40 C 359.82 37.74 361.17 32.62 358.81 28.32 C 356.14 25.12 351.25 26.62 348.71 29.21 C 348.07 25.79 350.31 21.25 347.45 18.58 M 226.62 29.51 C 224.48 27.18 221.33 25.24 218.08 26.61 C 211.28 29.10 211.45 40.64 218.49 42.70 C 221.49 44.13 224.46 41.78 226.40 39.69 C 226.37 41.13 226.52 42.61 228.12 42.94 C 228.23 34.83 228.36 26.72 228.03 18.62 C 225.10 21.30 227.10 25.96 226.62 29.51 M 130.22 20.64 C 130.41 27.94 130.16 35.24 130.34 42.54 C 134.76 42.77 139.19 42.60 143.62 42.63 C 143.54 42.20 143.37 41.34 143.29 40.91 C 139.57 40.89 135.84 40.90 132.12 40.91 C 132.12 37.99 132.12 35.08 132.11 32.17 C 135.47 32.18 138.82 32.19 142.17 32.15 L 142.21 30.54 C 138.85 30.49 135.49 30.51 132.13 30.52 C 132.12 27.75 132.12 24.97 132.11 22.20 C 135.71 22.14 139.34 22.42 142.93 22.07 C 143.24 21.75 143.86 21.11 144.18 20.80 C 139.53 20.47 134.87 20.63 130.22 20.64 M 296.64 20.36 C 299.28 28.09 301.58 35.96 304.85 43.46 C 307.28 38.51 309.09 33.30 311.21 28.22 C 313.50 33.26 315.14 38.58 317.82 43.44 C 320.70 35.75 323.66 28.03 325.73 20.09 L 324.14 20.97 C 321.55 26.92 319.93 33.24 317.69 39.33 C 315.21 34.57 313.86 29.30 311.18 24.63 C 308.87 29.48 307.18 34.59 304.98 39.48 C 302.69 33.29 300.85 26.93 298.40 20.82 L 296.64 20.36 M 328.24 21.97 C 328.97 22.88 329.82 23.66 330.80 24.31 C 331.10 23.38 331.38 22.43 331.63 21.48 C 330.49 21.62 329.36 21.78 328.24 21.97 M 337.51 26.76 C 336.70 26.76 335.07 26.75 334.25 26.75 L 334.34 28.18 C 335.16 28.20 336.81 28.23 337.63 28.24 C 337.63 32.90 337.46 37.57 337.86 42.22 C 339.58 42.36 341.58 43.13 342.94 41.55 C 342.04 41.31 340.24 40.84 339.34 40.60 C 339.06 36.48 339.29 32.34 339.22 28.21 C 340.55 28.21 341.89 28.21 343.23 28.20 L 343.25 26.73 C 341.93 26.75 340.61 26.76 339.29 26.77 C 339.23 24.95 339.15 23.12 339.01 21.30 C 337.13 22.58 337.73 24.87 337.51 26.76 M 147.92 26.31 C 147.76 31.68 147.86 37.05 147.86 42.41 C 148.28 42.46 149.13 42.56 149.56 42.61 C 149.72 38.76 149.18 34.85 149.89 31.05 C 151.33 28.27 154.39 27.82 157.22 28.17 C 159.99 31.85 158.39 36.63 158.85 40.87 C 158.64 41.98 159.62 42.55 160.33 43.18 C 160.74 39.43 160.33 35.65 160.66 31.90 C 161.41 27.84 168.80 26.18 169.83 30.80 C 170.65 34.59 170.13 38.54 170.09 42.40 C 170.70 42.41 171.31 42.42 171.92 42.43 C 171.50 38.13 172.33 33.70 171.25 29.48 C 169.33 24.87 162.80 26.16 160.31 29.59 C 158.21 25.47 152.42 25.70 149.78 29.15 C 149.95 27.65 149.17 26.76 147.92 26.31 M 198.51 27.57 C 193.43 31.28 194.39 40.93 200.81 42.59 C 203.76 44.05 206.65 42.17 209.19 40.82 C 209.25 40.03 209.31 39.25 209.37 38.47 C 207.07 40.27 204.19 42.52 201.12 41.09 C 198.10 40.37 197.12 37.12 196.73 34.43 C 201.25 34.35 205.78 34.47 210.30 34.30 C 209.69 32.18 209.29 29.89 207.83 28.15 C 205.27 26.01 201.22 25.43 198.51 27.57 M 252.59 30.35 C 250.42 34.66 251.93 41.28 257.09 42.56 C 260.69 44.09 265.13 42.08 266.58 38.48 C 263.84 39.60 261.27 42.51 258.06 41.21 C 254.90 40.57 253.46 37.35 252.83 34.51 C 257.41 34.29 262.00 34.48 266.58 34.33 C 266.05 32.16 265.85 29.62 263.99 28.10 C 260.75 24.83 254.31 26.01 252.59 30.35 M 329.60 25.85 C 329.28 31.44 329.49 37.04 329.45 42.63 C 329.87 42.57 330.72 42.45 331.15 42.39 C 331.06 37.26 331.40 32.12 330.99 27.01 C 330.64 26.72 329.95 26.14 329.60 25.85 M 265.19 64.12 C 256.55 65.97 251.88 75.99 254.18 84.13 C 255.63 90.85 262.02 96.12 268.97 95.87 C 296.33 95.91 323.71 95.91 351.07 95.87 C 358.27 96.10 365.22 90.31 365.84 83.06 C 366.05 79.03 366.33 74.62 364.06 71.07 C 361.54 66.40 356.26 63.63 351.02 63.66 C 324.33 63.60 297.64 63.69 270.95 63.62 C 269.02 63.64 267.07 63.66 265.19 64.12 M 164.25 88.25 C 155.53 90.04 151.40 100.99 155.26 108.61 C 157.35 113.62 162.70 116.66 168.05 116.42 C 191.37 116.45 214.69 116.37 238.02 116.45 C 241.69 116.49 245.64 116.00 248.52 113.49 C 255.41 107.97 255.33 96.04 248.34 90.63 C 245.43 88.25 241.56 87.76 237.93 87.76 C 215.28 87.80 192.64 87.81 169.99 87.76 C 168.07 87.79 166.13 87.86 164.25 88.25 M 267.32 108.49 C 262.56 108.86 258.14 111.74 255.86 115.92 C 252.03 122.56 253.20 131.85 259.03 136.98 C 261.98 139.67 266.06 140.67 269.97 140.61 C 296.99 140.58 324.00 140.65 351.02 140.57 C 358.12 140.81 364.97 135.27 365.80 128.15 C 366.09 123.83 366.37 119.05 363.79 115.31 C 360.98 110.57 355.41 108.12 350.02 108.35 C 322.45 108.46 294.87 108.17 267.32 108.49 M 164.47 127.69 C 156.40 129.13 152.00 138.68 154.51 146.11 C 155.98 151.59 161.17 155.86 166.90 155.81 C 190.59 155.97 214.29 155.78 237.98 155.90 C 241.52 155.95 245.32 155.56 248.18 153.25 C 255.08 148.08 255.48 136.63 249.16 130.85 C 246.51 128.22 242.68 127.30 239.05 127.35 C 216.03 127.34 193.01 127.40 169.99 127.32 C 168.15 127.35 166.29 127.37 164.47 127.69 M 267.23 151.36 C 263.72 151.69 260.34 153.31 257.96 155.92 C 252.47 161.77 252.23 171.55 257.12 177.84 C 258.79 179.92 261.05 182.11 263.94 181.89 C 294.30 181.92 324.67 181.85 355.03 181.92 C 360.30 182.47 363.95 177.37 365.44 172.93 C 366.42 167.41 366.60 160.89 362.54 156.48 C 359.33 152.45 354.03 150.95 349.06 151.17 C 321.78 151.32 294.50 150.95 267.23 151.36 M 164.36 165.60 C 156.47 167.07 152.11 176.33 154.41 183.66 C 155.79 189.31 161.09 193.76 166.97 193.69 C 190.31 193.87 213.65 193.66 236.99 193.79 C 240.82 193.84 244.99 193.67 248.12 191.15 C 255.03 186.02 255.52 174.60 249.24 168.77 C 246.57 166.11 242.71 165.16 239.04 165.21 C 216.00 165.21 192.97 165.27 169.93 165.19 C 168.07 165.21 166.19 165.25 164.36 165.60 M 370.96 219.00 C 365.46 220.29 359.89 223.16 357.07 228.27 C 353.23 234.90 353.91 244.11 359.14 249.83 C 364.40 255.07 372.06 256.11 379.04 257.35 C 384.40 258.32 390.84 260.83 391.52 267.08 C 390.75 269.14 390.00 271.49 387.95 272.65 C 380.93 277.28 371.14 276.12 364.53 271.26 C 362.78 270.16 361.25 268.32 359.01 268.44 C 356.01 268.21 353.27 271.10 353.69 274.07 C 353.52 276.34 355.54 277.93 356.75 279.60 C 357.49 279.32 358.43 277.85 359.22 278.76 C 360.00 279.46 359.01 280.38 358.80 281.11 C 369.83 287.48 385.12 288.50 395.54 280.40 C 404.29 273.88 404.95 258.50 395.75 252.13 C 388.73 247.40 379.92 247.53 372.16 244.78 C 368.76 243.69 365.35 240.88 365.52 236.99 C 365.53 232.58 369.89 229.66 373.91 229.21 C 381.56 227.51 388.95 231.32 395.19 235.36 C 397.06 234.59 399.66 234.09 400.31 231.84 C 401.39 229.29 400.32 226.19 398.07 224.66 C 390.49 218.78 380.23 217.13 370.96 219.00 M 100.82 225.98 C 100.83 243.67 100.79 261.37 100.83 279.07 C 100.35 284.87 110.03 287.87 112.13 282.01 C 112.80 275.09 112.26 268.10 112.42 261.15 C 118.97 261.21 125.52 261.04 132.06 261.22 C 134.81 261.19 137.40 263.00 138.53 265.47 C 139.65 269.69 138.86 274.29 140.76 278.33 C 142.26 282.06 145.82 285.45 150.05 285.29 C 152.99 285.54 155.85 282.84 155.29 279.83 C 154.83 277.07 151.70 276.00 150.75 273.54 C 149.86 269.35 150.24 264.78 148.11 260.92 C 147.04 258.82 145.16 257.33 143.41 255.82 C 147.41 252.97 150.52 248.85 151.87 244.11 C 154.95 233.36 147.39 220.49 135.95 219.37 C 125.99 219.15 116.01 219.26 106.05 219.31 C 102.53 219.13 100.54 222.85 100.82 225.98 M 162.98 221.02 C 160.15 223.65 161.97 229.17 165.85 229.57 C 171.33 229.94 176.84 229.61 182.33 229.73 C 182.37 246.19 182.30 262.64 182.35 279.09 C 182.28 281.26 183.11 283.69 185.31 284.51 C 189.03 286.83 195.00 283.55 194.27 279.00 C 194.27 262.58 194.24 246.15 194.28 229.73 C 199.82 229.61 205.38 229.96 210.91 229.56 C 215.04 229.20 216.17 223.31 213.49 220.69 C 212.16 219.16 209.92 219.32 208.08 219.25 C 194.70 219.28 181.32 219.25 167.95 219.26 C 166.15 219.23 164.15 219.46 162.98 221.02 M 225.31 224.93 C 225.29 243.27 225.23 261.62 225.34 279.96 C 225.20 282.96 228.05 285.25 230.91 285.21 C 241.27 285.26 251.64 285.22 262.01 285.23 C 264.59 285.44 267.16 283.87 268.11 281.46 C 268.69 279.54 267.60 277.71 267.01 275.96 C 265.40 275.30 263.77 274.54 261.98 274.63 C 253.57 274.58 245.15 274.66 236.73 274.60 C 236.72 268.64 236.72 262.68 236.74 256.72 C 243.16 256.70 249.59 256.71 256.02 256.73 C 257.93 256.70 259.95 256.81 261.74 255.97 C 265.36 253.65 264.29 246.72 259.71 246.38 C 252.06 246.07 244.39 246.36 236.74 246.24 C 236.72 240.74 236.72 235.24 236.74 229.74 C 244.84 229.71 252.93 229.72 261.03 229.74 C 263.09 229.70 265.58 229.83 266.98 227.99 C 270.14 224.98 267.28 218.92 262.96 219.29 C 252.30 219.22 241.63 219.26 230.96 219.28 C 227.83 218.96 225.04 221.82 225.31 224.93 M 279.43 224.31 C 279.26 241.52 279.43 258.73 279.34 275.94 C 279.38 278.20 279.19 280.55 280.01 282.71 C 281.62 285.03 285.02 286.16 287.45 284.39 C 290.08 282.91 289.90 279.57 290.07 276.98 C 289.71 264.81 290.01 252.64 289.86 240.47 C 295.63 248.38 300.34 257.00 305.82 265.10 C 307.86 268.33 312.96 268.32 314.95 265.03 C 320.36 257.27 325.26 249.16 330.64 241.37 C 331.05 254.56 330.47 267.77 330.92 280.96 C 332.13 286.37 340.71 286.66 342.18 281.27 C 342.40 262.19 342.27 243.09 342.25 224.00 C 342.24 219.16 334.69 217.33 332.25 221.41 C 325.07 232.04 317.92 242.69 310.86 253.40 C 303.90 243.00 297.22 232.42 290.33 221.98 C 287.97 217.23 279.47 218.81 279.43 224.31 M 144.72 336.77 C 144.77 345.30 144.43 353.86 144.86 362.39 L 146.21 362.97 C 147.52 359.35 146.61 355.32 146.81 351.53 C 150.86 351.85 155.59 350.43 159.10 352.97 C 161.22 356.03 159.07 362.64 164.42 362.82 C 161.67 359.00 163.32 353.45 159.32 350.43 C 163.69 347.76 164.71 340.80 160.04 337.92 C 155.33 335.61 149.78 337.10 144.72 336.77 M 172.95 336.78 C 172.82 343.84 172.92 350.91 172.84 357.98 C 173.00 359.47 172.57 361.20 173.41 362.55 C 177.62 362.87 181.87 362.73 186.09 362.68 C 187.57 362.92 188.69 362.07 189.59 361.01 C 184.82 360.53 180.02 360.65 175.23 360.70 C 175.24 357.24 175.24 353.79 175.23 350.33 C 179.42 350.33 183.61 350.45 187.79 350.11 L 186.53 348.74 C 182.87 347.89 179.00 348.47 175.26 348.38 C 175.24 345.17 175.24 341.97 175.24 338.77 C 179.46 338.67 183.70 339.04 187.90 338.58 C 188.29 338.17 189.07 337.37 189.45 336.96 C 183.96 336.55 178.45 336.71 172.95 336.78 M 199.95 349.80 C 198.17 354.25 195.97 358.58 195.06 363.32 C 198.10 361.78 198.53 358.10 199.79 355.29 C 203.93 355.21 208.08 355.21 212.22 355.29 C 213.72 357.87 213.58 362.63 217.37 362.81 C 213.78 353.72 210.44 344.49 206.06 335.75 C 203.58 340.24 201.92 345.09 199.95 349.80 M 225.35 337.32 C 224.94 345.70 225.05 354.15 225.29 362.54 C 230.36 362.92 235.46 362.65 240.55 362.61 C 240.47 362.13 240.31 361.16 240.23 360.68 C 235.92 360.67 231.61 360.68 227.30 360.69 C 227.23 352.55 227.45 344.40 227.16 336.27 C 226.70 336.53 225.80 337.06 225.35 337.32 M 259.12 336.89 C 259.96 339.60 263.03 338.52 265.06 338.60 C 269.80 337.81 274.55 338.81 279.30 338.78 L 279.42 336.76 C 272.65 336.74 265.88 336.55 259.12 336.89 M 287.91 336.82 C 287.59 345.41 287.64 354.03 287.88 362.62 C 288.40 362.53 289.45 362.35 289.98 362.26 C 289.85 353.81 290.21 345.34 289.82 336.90 C 289.34 336.88 288.38 336.84 287.91 336.82 M 300.83 336.01 C 300.38 344.91 300.28 353.88 300.82 362.77 L 302.20 362.82 C 302.92 355.68 302.20 348.50 302.58 341.35 C 306.14 345.81 308.78 350.91 312.37 355.36 C 315.61 350.79 318.44 345.95 321.82 341.48 C 322.02 347.66 321.75 353.84 321.91 360.01 C 321.64 361.54 322.72 362.56 323.73 363.49 C 324.67 354.67 324.28 345.75 324.05 336.91 L 322.90 336.59 C 318.97 341.40 315.93 346.85 312.34 351.90 C 308.36 346.71 305.67 340.50 300.83 336.01 M 334.72 336.76 C 334.63 345.36 334.72 353.97 334.66 362.58 C 339.99 362.54 345.38 363.22 350.66 362.28 L 350.18 360.86 C 345.75 360.44 341.29 360.76 336.85 360.68 C 336.83 357.23 336.84 353.78 336.86 350.33 C 341.11 350.36 345.37 350.45 349.61 350.02 C 349.18 349.65 348.31 348.91 347.88 348.54 C 344.22 348.08 340.51 348.40 336.84 348.35 C 336.83 345.15 336.83 341.95 336.83 338.76 C 341.41 338.52 346.12 339.38 350.60 338.27 L 350.24 336.90 C 345.08 336.46 339.89 336.79 334.72 336.76 M 269.19 339.19 C 267.89 347.17 268.58 355.38 268.83 363.44 C 271.10 362.42 270.48 359.87 270.65 357.95 C 270.59 352.53 270.68 347.10 270.61 341.68 C 270.94 340.27 270.47 339.44 269.19 339.19 M 165.72 388.78 C 165.79 397.28 165.41 405.81 165.87 414.30 L 167.07 415.06 C 168.42 411.44 167.53 407.43 167.72 403.65 C 171.28 403.57 174.94 404.01 178.43 403.14 C 184.14 400.74 184.10 390.90 177.96 389.12 C 173.95 388.24 169.79 388.84 165.72 388.78 M 191.43 388.70 C 191.19 397.35 191.32 406.00 191.34 414.65 C 196.20 414.60 201.07 414.95 205.92 414.55 C 206.40 414.15 207.35 413.35 207.83 412.95 C 203.03 412.53 198.22 412.68 193.42 412.69 C 193.43 409.23 193.43 405.77 193.42 402.32 C 197.56 402.27 201.77 402.74 205.84 401.80 C 205.56 401.49 204.99 400.86 204.71 400.54 C 200.98 400.06 197.20 400.43 193.45 400.38 C 193.43 397.16 193.43 393.95 193.43 390.74 C 198.07 390.70 202.75 391.09 207.37 390.41 L 206.96 388.98 C 201.81 388.36 196.60 388.85 191.43 388.70 M 139.31 389.37 C 130.35 393.22 129.51 407.33 137.19 412.88 C 142.20 416.50 149.92 415.66 153.82 410.78 C 158.31 405.06 157.83 395.58 152.01 390.92 C 148.53 388.06 143.40 387.76 139.31 389.37 M 215.85 388.78 C 215.80 396.56 215.75 404.34 215.82 412.11 C 215.45 413.70 216.67 414.53 217.82 415.29 C 218.25 411.38 218.22 407.45 218.15 403.54 C 221.73 403.62 225.43 403.06 228.92 404.04 C 233.15 405.95 230.08 411.91 233.50 414.53 C 234.25 414.39 235.01 414.31 235.77 414.14 C 232.56 410.81 234.57 405.17 230.45 402.41 C 234.97 399.78 235.93 392.52 231.04 389.77 C 226.28 387.73 220.88 389.03 215.85 388.78 M 243.65 408.77 C 243.04 410.94 240.82 413.45 242.83 415.56 C 244.19 412.85 245.35 410.05 246.49 407.24 C 250.57 407.23 254.66 407.22 258.75 407.27 C 260.01 409.97 260.49 413.32 262.99 415.24 C 264.12 413.45 262.61 411.57 262.14 409.84 C 258.94 402.54 256.32 395.00 252.84 387.83 C 248.87 394.38 246.86 401.86 243.65 408.77 M 268.91 388.92 C 270.86 392.10 275.23 390.24 278.32 390.70 C 278.37 397.80 278.24 404.91 278.33 412.02 C 278.26 413.47 278.84 414.63 280.07 415.51 C 280.76 407.25 280.20 398.96 280.43 390.68 C 283.45 390.73 286.51 390.87 289.51 390.35 L 289.10 388.92 C 282.39 388.49 275.63 388.66 268.91 388.92 M 297.83 388.17 C 297.56 397.27 297.43 406.39 297.91 415.48 C 298.32 415.05 299.15 414.19 299.56 413.76 C 300.07 407.18 299.56 400.55 299.79 393.95 C 299.63 391.88 300.44 389.03 297.83 388.17 M 310.26 408.97 C 310.45 411.17 309.52 414.14 312.04 415.33 C 312.51 407.85 312.11 400.35 312.31 392.87 C 317.06 399.06 321.66 405.38 326.28 411.68 C 327.33 413.10 328.65 414.29 329.99 415.43 C 330.51 406.31 330.44 397.15 330.04 388.03 C 329.68 388.41 328.97 389.17 328.62 389.55 C 327.98 396.61 328.61 403.76 328.35 410.85 C 322.31 403.33 317.19 395.09 310.76 387.89 C 309.79 394.88 310.53 401.95 310.26 408.97 M 341.24 394.32 C 337.49 400.26 338.92 409.19 345.08 412.97 C 349.88 416.19 356.29 415.55 360.96 412.40 C 360.89 408.86 361.01 405.32 360.66 401.80 C 357.71 401.54 354.76 401.69 351.81 401.74 C 351.76 402.21 351.65 403.16 351.60 403.63 C 353.95 403.69 356.31 403.73 358.67 403.82 C 358.70 406.38 358.72 408.94 358.76 411.51 C 354.13 413.53 347.97 413.69 344.39 409.58 C 339.15 404.30 340.98 394.08 348.02 391.34 C 352.16 389.26 356.59 391.38 360.75 392.24 C 359.30 388.86 355.32 388.39 352.10 388.42 C 347.80 388.42 343.51 390.63 341.24 394.32 M 182.41 441.38 C 179.02 442.83 177.58 447.42 179.65 450.51 C 182.67 455.04 189.62 453.87 192.70 458.30 C 194.66 461.47 191.18 465.08 187.92 464.91 C 184.39 465.52 181.36 463.56 178.83 461.37 C 178.44 461.64 177.67 462.18 177.28 462.45 C 180.83 466.90 187.66 468.81 192.57 465.48 C 196.18 463.32 196.40 457.56 193.08 455.07 C 190.10 452.97 186.33 452.55 183.20 450.74 C 178.91 448.64 181.51 442.10 185.99 442.43 C 189.56 441.90 192.42 444.67 195.73 445.48 C 193.75 440.26 186.98 439.32 182.41 441.38 M 250.87 440.94 L 250.26 442.13 C 253.18 443.18 256.36 442.59 259.40 442.69 C 259.56 450.48 259.18 458.29 259.56 466.07 C 259.95 466.34 260.74 466.89 261.14 467.16 C 261.99 459.04 261.26 450.85 261.54 442.71 C 264.83 442.78 268.15 442.82 271.38 442.05 C 268.99 440.10 265.82 440.81 263.00 440.68 C 258.96 440.83 254.89 440.41 250.87 440.94 M 201.67 441.90 C 203.92 446.30 207.78 449.66 209.98 454.09 C 210.46 458.28 210.07 462.50 210.20 466.71 C 210.73 466.62 211.79 466.45 212.32 466.37 C 212.37 462.25 212.02 458.12 212.45 454.03 C 214.69 449.40 218.84 445.94 220.94 441.21 L 219.87 440.26 C 216.51 443.60 214.20 447.81 211.36 451.58 C 208.98 448.57 206.71 445.50 204.47 442.40 C 204.09 441.23 200.96 439.19 201.67 441.90 M 231.24 441.29 C 227.35 442.78 226.13 448.15 228.78 451.28 C 232.18 454.94 238.46 454.14 241.38 458.40 C 243.19 461.87 239.47 465.28 236.05 464.93 C 232.54 465.53 229.90 463.04 227.11 461.45 C 225.58 461.83 226.46 463.02 227.10 463.82 C 230.78 467.43 237.03 468.33 241.37 465.37 C 244.75 463.20 244.84 457.59 241.81 455.10 C 238.35 452.62 233.57 452.61 230.44 449.63 C 228.19 447.26 230.12 443.41 233.05 442.79 C 236.83 441.21 240.21 443.95 243.44 445.53 C 244.35 443.76 242.56 442.50 241.26 441.68 C 238.22 440.09 234.39 439.96 231.24 441.29 M 278.72 440.76 C 278.63 447.84 278.72 454.93 278.64 462.02 C 278.81 463.49 278.32 465.25 279.17 466.56 C 284.28 466.95 289.41 466.62 294.53 466.62 C 294.44 466.14 294.26 465.17 294.17 464.69 C 289.74 464.66 285.30 464.69 280.87 464.69 C 280.84 461.23 280.83 457.78 280.87 454.32 C 285.10 454.35 289.35 454.45 293.58 454.04 C 293.11 453.66 292.18 452.89 291.72 452.50 C 288.11 452.10 284.46 452.40 280.84 452.35 C 280.83 449.15 280.84 445.95 280.83 442.76 C 284.20 442.75 287.57 442.82 290.93 442.79 C 292.11 442.67 295.63 443.18 294.21 440.88 C 289.06 440.46 283.88 440.79 278.72 440.76 M 303.27 459.94 C 303.54 462.47 302.35 465.86 305.06 467.43 C 305.62 459.97 305.14 452.49 305.38 445.02 C 308.07 448.88 310.54 452.88 313.15 456.80 C 313.79 457.57 314.26 458.84 315.47 458.76 C 318.83 454.44 321.47 449.61 324.65 445.16 C 324.92 451.82 324.52 458.50 324.82 465.16 C 324.25 466.64 326.72 467.55 326.82 465.95 C 327.52 459.99 326.51 453.96 327.03 447.98 C 326.85 445.45 327.81 442.32 325.97 440.27 C 321.87 445.15 318.79 450.79 315.08 455.96 C 311.29 450.73 308.48 444.70 303.87 440.13 C 302.57 446.64 303.67 453.35 303.27 459.94 Z" />
<path fill="#ffffff" opacity="1.00" d=" M 182.22 28.24 C 185.36 26.63 189.40 28.71 190.23 32.06 C 191.99 36.18 188.71 42.02 183.93 41.48 C 177.72 40.62 176.73 30.70 182.22 28.24 Z" />
<path fill="#ffffff" opacity="1.00" d=" M 196.67 32.74 C 197.84 29.99 199.93 27.91 202.99 27.49 C 205.72 28.17 207.73 30.14 208.60 32.79 C 204.63 32.92 200.64 32.96 196.67 32.74 Z" />
<path fill="#ffffff" opacity="1.00" d=" M 219.02 27.96 C 223.64 26.38 227.55 31.64 226.59 35.89 C 226.16 39.33 222.48 42.50 218.99 41.19 C 213.22 39.51 213.25 29.59 219.02 27.96 Z" />
<path fill="#ffffff" opacity="1.00" d=" M 252.98 32.71 C 254.20 30.17 256.20 28.14 258.98 27.45 C 261.79 28.14 264.06 29.98 265.15 32.70 C 261.10 32.96 257.03 32.97 252.98 32.71 Z" />
<path fill="#ffffff" opacity="1.00" d=" M 267.34 74.49 C 269.20 74.10 271.11 74.20 273.00 74.17 C 299.01 74.29 325.03 74.09 351.04 74.26 C 355.92 74.08 357.35 81.23 354.16 84.12 C 352.54 85.74 350.04 85.34 347.97 85.47 C 321.70 85.35 295.43 85.53 269.17 85.38 C 263.43 85.63 262.32 76.34 267.34 74.49 Z" />
<path fill="#ffffff" opacity="1.00" d=" M 166.28 97.48 C 168.48 97.10 170.74 97.18 172.97 97.17 C 195.34 97.34 217.72 97.04 240.08 97.31 C 244.64 97.24 245.75 104.08 242.34 106.41 C 240.67 107.17 238.76 107.02 236.98 107.13 C 217.33 107.06 197.69 107.11 178.04 107.10 C 174.05 107.03 170.01 107.44 166.06 106.74 C 162.15 105.48 162.23 98.48 166.28 97.48 Z" />
<path fill="#ffffff" opacity="1.00" d=" M 267.12 119.30 C 270.01 118.52 273.05 118.85 276.02 118.79 C 300.35 118.83 324.68 118.81 349.01 118.80 C 351.11 118.86 353.74 118.92 354.92 121.00 C 356.57 123.74 356.11 128.42 352.81 129.70 C 349.60 130.43 346.27 130.08 343.00 130.14 C 319.31 130.13 295.61 130.11 271.92 130.16 C 270.12 130.08 268.22 130.19 266.55 129.43 C 263.17 127.23 263.28 120.95 267.12 119.30 Z" />
<path fill="#ffffff" opacity="1.00" d=" M 165.30 137.34 C 166.73 136.54 168.46 136.74 170.04 136.61 C 192.70 136.68 215.37 136.65 238.04 136.62 C 239.91 136.74 242.31 136.62 243.41 138.48 C 245.55 141.38 243.92 146.70 239.89 146.52 C 216.92 146.71 193.93 146.46 170.95 146.63 C 169.23 146.59 167.47 146.66 165.80 146.19 C 162.49 144.70 162.33 139.28 165.30 137.34 Z" />
<path fill="#ffffff" opacity="1.00" d=" M 267.15 162.15 C 269.69 161.41 272.39 161.71 275.00 161.65 C 299.68 161.71 324.37 161.68 349.05 161.67 C 351.20 161.67 353.82 161.86 354.99 163.99 C 356.45 166.61 356.12 170.68 353.37 172.35 C 351.68 173.03 349.79 172.83 348.02 172.91 C 321.65 172.79 295.28 172.98 268.92 172.82 C 263.40 173.08 262.45 164.03 267.15 162.15 Z" />
<path fill="#ffffff" opacity="1.00" d=" M 166.49 174.74 C 169.94 174.24 173.45 174.54 176.93 174.50 C 197.29 174.51 217.64 174.53 238.00 174.48 C 239.74 174.60 241.88 174.43 243.10 175.95 C 245.66 178.75 244.11 184.58 239.87 184.39 C 216.59 184.57 193.30 184.36 170.03 184.49 C 168.03 184.39 165.52 184.65 164.20 182.77 C 162.34 180.24 163.05 175.48 166.49 174.74 Z" />
<path fill="#ffffff" opacity="1.00" d=" M 112.43 251.61 C 112.44 244.31 112.41 237.02 112.44 229.73 C 119.91 229.98 127.49 229.20 134.89 230.12 C 143.04 234.05 141.96 247.49 134.36 251.42 C 127.07 251.89 119.73 251.47 112.43 251.61 Z" />
<path fill="#ffffff" opacity="1.00" d=" M 146.83 338.78 C 150.48 338.86 154.23 338.35 157.81 339.22 C 162.44 340.86 161.47 348.34 156.94 349.45 C 153.61 349.91 150.23 349.66 146.88 349.68 C 146.85 346.04 146.82 342.41 146.83 338.78 Z" />
<path fill="#ffffff" opacity="1.00" d=" M 200.68 353.17 C 202.43 348.81 204.17 344.45 205.96 340.11 C 207.74 344.45 209.52 348.80 211.26 353.16 C 207.73 353.16 204.20 353.16 200.68 353.17 Z" />
<path fill="#ffffff" opacity="1.00" d=" M 218.20 390.75 C 221.97 390.94 225.94 390.15 229.56 391.47 C 233.63 393.63 232.33 400.57 227.93 401.49 C 224.69 401.90 221.41 401.66 218.15 401.67 C 218.16 398.03 218.16 394.39 218.20 390.75 Z" />
<path fill="#ffffff" opacity="1.00" d=" M 140.22 391.31 C 145.66 388.58 152.75 392.09 154.08 397.98 C 156.59 404.78 151.44 413.94 143.61 412.90 C 132.78 412.56 130.84 395.39 140.22 391.31 Z" />
<path fill="#ffffff" opacity="1.00" d=" M 167.74 390.76 C 171.09 390.87 174.57 390.31 177.83 391.31 C 181.80 393.26 181.25 400.05 177.06 401.45 C 173.97 401.89 170.84 401.65 167.73 401.66 C 167.74 398.03 167.74 394.39 167.74 390.76 Z" />
<path fill="#ffffff" opacity="1.00" d=" M 252.46 392.49 C 254.49 396.61 256.17 400.88 257.87 405.16 C 254.33 405.15 250.80 405.16 247.26 405.17 C 248.99 400.94 250.63 396.67 252.46 392.49 Z" />
</g>
<g id="#010101ff">
<path fill="#010101" opacity="1.00" d=" M 177.42 18.68 C 180.39 21.24 178.04 25.93 178.68 29.32 C 180.80 27.17 183.84 25.35 186.94 26.54 C 194.03 28.61 193.95 40.52 186.95 42.64 C 183.96 44.11 180.99 41.88 178.86 39.95 C 179.09 41.59 178.86 42.90 177.08 42.65 C 177.56 34.66 176.87 26.65 177.42 18.68 M 182.22 28.24 C 176.73 30.70 177.72 40.62 183.93 41.48 C 188.71 42.02 191.99 36.18 190.23 32.06 C 189.40 28.71 185.36 26.63 182.22 28.24 Z" />
<path fill="#010101" opacity="1.00" d=" M 245.81 29.10 C 246.23 25.56 244.57 21.32 247.04 18.29 C 247.64 26.47 247.26 34.69 247.28 42.88 L 246.11 42.42 C 245.64 40.73 245.05 39.08 244.67 37.37 L 245.81 37.72 C 245.62 35.09 246.45 31.86 244.23 29.85 C 243.20 28.50 241.50 28.07 240.03 27.42 C 238.55 28.04 236.86 28.39 235.74 29.62 C 233.08 32.58 233.92 37.13 235.87 40.24 C 237.47 40.83 239.10 41.34 240.80 41.60 C 241.93 40.33 243.64 39.75 245.16 40.71 C 243.02 42.05 240.40 44.02 237.78 42.68 C 230.79 40.64 230.58 29.06 237.34 26.62 C 240.45 25.29 243.49 27.14 245.81 29.10 Z" />
<path fill="#010101" opacity="1.00" d=" M 282.80 29.09 C 282.77 25.54 282.63 21.97 282.99 18.43 C 283.28 18.82 283.86 19.60 284.15 19.99 C 284.60 27.52 284.23 35.10 284.32 42.66 L 283.31 42.60 C 282.69 41.40 282.13 40.19 281.65 38.93 C 284.58 34.65 282.27 28.32 277.03 27.42 C 275.55 28.04 273.86 28.39 272.73 29.63 C 270.09 32.58 270.91 37.11 272.88 40.20 C 275.09 41.34 277.52 41.75 279.97 41.09 L 279.52 39.57 C 280.36 40.01 281.19 40.45 282.03 40.91 C 279.87 42.01 277.43 43.99 274.89 42.71 C 267.82 40.78 267.53 29.12 274.30 26.63 C 277.42 25.28 280.47 27.13 282.80 29.09 Z" />
<path fill="#010101" opacity="1.00" d=" M 347.45 18.58 C 350.31 21.25 348.07 25.79 348.71 29.21 C 351.25 26.62 356.14 25.12 358.81 28.32 C 361.17 32.62 359.82 37.74 360.14 42.40 C 359.72 42.45 358.87 42.57 358.44 42.62 C 357.95 38.02 359.70 32.74 356.94 28.67 C 353.93 27.12 349.45 28.54 348.89 32.14 C 348.58 35.55 348.79 38.99 348.92 42.41 C 348.30 42.41 347.69 42.41 347.08 42.41 C 347.52 34.47 346.87 26.51 347.45 18.58 Z" />
<path fill="#010101" opacity="1.00" d=" M 226.62 29.51 C 227.10 25.96 225.10 21.30 228.03 18.62 C 228.36 26.72 228.23 34.83 228.12 42.94 C 226.52 42.61 226.37 41.13 226.40 39.69 C 224.46 41.78 221.49 44.13 218.49 42.70 C 211.45 40.64 211.28 29.10 218.08 26.61 C 221.33 25.24 224.48 27.18 226.62 29.51 M 219.02 27.96 C 213.25 29.59 213.22 39.51 218.99 41.19 C 222.48 42.50 226.16 39.33 226.59 35.89 C 227.55 31.64 223.64 26.38 219.02 27.96 Z" />
<path fill="#010101" opacity="1.00" d=" M 130.22 20.64 C 134.87 20.63 139.53 20.47 144.18 20.80 C 143.86 21.11 143.24 21.75 142.93 22.07 C 139.34 22.42 135.71 22.14 132.11 22.20 C 132.12 24.97 132.12 27.75 132.13 30.52 C 135.49 30.51 138.85 30.49 142.21 30.54 L 142.17 32.15 C 138.82 32.19 135.47 32.18 132.11 32.17 C 132.12 35.08 132.12 37.99 132.12 40.91 C 135.84 40.90 139.57 40.89 143.29 40.91 C 143.37 41.34 143.54 42.20 143.62 42.63 C 139.19 42.60 134.76 42.77 130.34 42.54 C 130.16 35.24 130.41 27.94 130.22 20.64 Z" />
<path fill="#010101" opacity="1.00" d=" M 296.64 20.36 L 298.40 20.82 C 300.85 26.93 302.69 33.29 304.98 39.48 C 307.18 34.59 308.87 29.48 311.18 24.63 C 313.86 29.30 315.21 34.57 317.69 39.33 C 319.93 33.24 321.55 26.92 324.14 20.97 L 325.73 20.09 C 323.66 28.03 320.70 35.75 317.82 43.44 C 315.14 38.58 313.50 33.26 311.21 28.22 C 309.09 33.30 307.28 38.51 304.85 43.46 C 301.58 35.96 299.28 28.09 296.64 20.36 Z" />
<path fill="#010101" opacity="1.00" d=" M 328.24 21.97 C 329.36 21.78 330.49 21.62 331.63 21.48 C 331.38 22.43 331.10 23.38 330.80 24.31 C 329.82 23.66 328.97 22.88 328.24 21.97 Z" />
<path fill="#010101" opacity="1.00" d=" M 337.51 26.76 C 337.73 24.87 337.13 22.58 339.01 21.30 C 339.15 23.12 339.23 24.95 339.29 26.77 C 340.61 26.76 341.93 26.75 343.25 26.73 L 343.23 28.20 C 341.89 28.21 340.55 28.21 339.22 28.21 C 339.29 32.34 339.06 36.48 339.34 40.60 C 340.24 40.84 342.04 41.31 342.94 41.55 C 341.58 43.13 339.58 42.36 337.86 42.22 C 337.46 37.57 337.63 32.90 337.63 28.24 C 336.81 28.23 335.16 28.20 334.34 28.18 L 334.25 26.75 C 335.07 26.75 336.70 26.76 337.51 26.76 Z" />
<path fill="#010101" opacity="1.00" d=" M 147.92 26.31 C 149.17 26.76 149.95 27.65 149.78 29.15 C 152.42 25.70 158.21 25.47 160.31 29.59 C 162.80 26.16 169.33 24.87 171.25 29.48 C 172.33 33.70 171.50 38.13 171.92 42.43 C 171.31 42.42 170.70 42.41 170.09 42.40 C 170.13 38.54 170.65 34.59 169.83 30.80 C 168.80 26.18 161.41 27.84 160.66 31.90 C 160.33 35.65 160.74 39.43 160.33 43.18 C 159.62 42.55 158.64 41.98 158.85 40.87 C 158.39 36.63 159.99 31.85 157.22 28.17 C 154.39 27.82 151.33 28.27 149.89 31.05 C 149.18 34.85 149.72 38.76 149.56 42.61 C 149.13 42.56 148.28 42.46 147.86 42.41 C 147.86 37.05 147.76 31.68 147.92 26.31 Z" />
<path fill="#010101" opacity="1.00" d=" M 198.51 27.57 C 201.22 25.43 205.27 26.01 207.83 28.15 C 209.29 29.89 209.69 32.18 210.30 34.30 C 205.78 34.47 201.25 34.35 196.73 34.43 C 197.12 37.12 198.10 40.37 201.12 41.09 C 204.19 42.52 207.07 40.27 209.37 38.47 C 209.31 39.25 209.25 40.03 209.19 40.82 C 206.65 42.17 203.76 44.05 200.81 42.59 C 194.39 40.93 193.43 31.28 198.51 27.57 M 196.67 32.74 C 200.64 32.96 204.63 32.92 208.60 32.79 C 207.73 30.14 205.72 28.17 202.99 27.49 C 199.93 27.91 197.84 29.99 196.67 32.74 Z" />
<path fill="#010101" opacity="1.00" d=" M 252.59 30.35 C 254.31 26.01 260.75 24.83 263.99 28.10 C 265.85 29.62 266.05 32.16 266.58 34.33 C 262.00 34.48 257.41 34.29 252.83 34.51 C 253.46 37.35 254.90 40.57 258.06 41.21 C 261.27 42.51 263.84 39.60 266.58 38.48 C 265.13 42.08 260.69 44.09 257.09 42.56 C 251.93 41.28 250.42 34.66 252.59 30.35 M 252.98 32.71 C 257.03 32.97 261.10 32.96 265.15 32.70 C 264.06 29.98 261.79 28.14 258.98 27.45 C 256.20 28.14 254.20 30.17 252.98 32.71 Z" />
<path fill="#010101" opacity="1.00" d=" M 329.60 25.85 C 329.95 26.14 330.64 26.72 330.99 27.01 C 331.40 32.12 331.06 37.26 331.15 42.39 C 330.72 42.45 329.87 42.57 329.45 42.63 C 329.49 37.04 329.28 31.44 329.60 25.85 Z" />
<path fill="#010101" opacity="1.00" d=" M 370.96 219.00 C 380.23 217.13 390.49 218.78 398.07 224.66 C 400.32 226.19 401.39 229.29 400.31 231.84 C 399.66 234.09 397.06 234.59 395.19 235.36 C 388.95 231.32 381.56 227.51 373.91 229.21 C 369.89 229.66 365.53 232.58 365.52 236.99 C 365.35 240.88 368.76 243.69 372.16 244.78 C 379.92 247.53 388.73 247.40 395.75 252.13 C 404.95 258.50 404.29 273.88 395.54 280.40 C 385.12 288.50 369.83 287.48 358.80 281.11 C 359.01 280.38 360.00 279.46 359.22 278.76 C 358.43 277.85 357.49 279.32 356.75 279.60 C 355.54 277.93 353.52 276.34 353.69 274.07 C 353.27 271.10 356.01 268.21 359.01 268.44 C 361.25 268.32 362.78 270.16 364.53 271.26 C 371.14 276.12 380.93 277.28 387.95 272.65 C 390.00 271.49 390.75 269.14 391.52 267.08 C 390.84 260.83 384.40 258.32 379.04 257.35 C 372.06 256.11 364.40 255.07 359.14 249.83 C 353.91 244.11 353.23 234.90 357.07 228.27 C 359.89 223.16 365.46 220.29 370.96 219.00 Z" />
<path fill="#010101" opacity="1.00" d=" M 100.82 225.98 C 100.54 222.85 102.53 219.13 106.05 219.31 C 116.01 219.26 125.99 219.15 135.95 219.37 C 147.39 220.49 154.95 233.36 151.87 244.11 C 150.52 248.85 147.41 252.97 143.41 255.82 C 145.16 257.33 147.04 258.82 148.11 260.92 C 150.24 264.78 149.86 269.35 150.75 273.54 C 151.70 276.00 154.83 277.07 155.29 279.83 C 155.85 282.84 152.99 285.54 150.05 285.29 C 145.82 285.45 142.26 282.06 140.76 278.33 C 138.86 274.29 139.65 269.69 138.53 265.47 C 137.40 263.00 134.81 261.19 132.06 261.22 C 125.52 261.04 118.97 261.21 112.42 261.15 C 112.26 268.10 112.80 275.09 112.13 282.01 C 110.03 287.87 100.35 284.87 100.83 279.07 C 100.79 261.37 100.83 243.67 100.82 225.98 M 112.43 251.61 C 119.73 251.47 127.07 251.89 134.36 251.42 C 141.96 247.49 143.04 234.05 134.89 230.12 C 127.49 229.20 119.91 229.98 112.44 229.73 C 112.41 237.02 112.44 244.31 112.43 251.61 Z" />
<path fill="#010101" opacity="1.00" d=" M 162.98 221.02 C 164.15 219.46 166.15 219.23 167.95 219.26 C 181.32 219.25 194.70 219.28 208.08 219.25 C 209.92 219.32 212.16 219.16 213.49 220.69 C 216.17 223.31 215.04 229.20 210.91 229.56 C 205.38 229.96 199.82 229.61 194.28 229.73 C 194.24 246.15 194.27 262.58 194.27 279.00 C 195.00 283.55 189.03 286.83 185.31 284.51 C 183.11 283.69 182.28 281.26 182.35 279.09 C 182.30 262.64 182.37 246.19 182.33 229.73 C 176.84 229.61 171.33 229.94 165.85 229.57 C 161.97 229.17 160.15 223.65 162.98 221.02 Z" />
<path fill="#010101" opacity="1.00" d=" M 225.31 224.93 C 225.04 221.82 227.83 218.96 230.96 219.28 C 241.63 219.26 252.30 219.22 262.96 219.29 C 267.28 218.92 270.14 224.98 266.98 227.99 C 265.58 229.83 263.09 229.70 261.03 229.74 C 252.93 229.72 244.84 229.71 236.74 229.74 C 236.72 235.24 236.72 240.74 236.74 246.24 C 244.39 246.36 252.06 246.07 259.71 246.38 C 264.29 246.72 265.36 253.65 261.74 255.97 C 259.95 256.81 257.93 256.70 256.02 256.73 C 249.59 256.71 243.16 256.70 236.74 256.72 C 236.72 262.68 236.72 268.64 236.73 274.60 C 245.15 274.66 253.57 274.58 261.98 274.63 C 263.77 274.54 265.40 275.30 267.01 275.96 C 267.60 277.71 268.69 279.54 268.11 281.46 C 267.16 283.87 264.59 285.44 262.01 285.23 C 251.64 285.22 241.27 285.26 230.91 285.21 C 228.05 285.25 225.20 282.96 225.34 279.96 C 225.23 261.62 225.29 243.27 225.31 224.93 Z" />
<path fill="#010101" opacity="1.00" d=" M 279.43 224.31 C 279.47 218.81 287.97 217.23 290.33 221.98 C 297.22 232.42 303.90 243.00 310.86 253.40 C 317.92 242.69 325.07 232.04 332.25 221.41 C 334.69 217.33 342.24 219.16 342.25 224.00 C 342.27 243.09 342.40 262.19 342.18 281.27 C 340.71 286.66 332.13 286.37 330.92 280.96 C 330.47 267.77 331.05 254.56 330.64 241.37 C 325.26 249.16 320.36 257.27 314.95 265.03 C 312.96 268.32 307.86 268.33 305.82 265.10 C 300.34 257.00 295.63 248.38 289.86 240.47 C 290.01 252.64 289.71 264.81 290.07 276.98 C 289.90 279.57 290.08 282.91 287.45 284.39 C 285.02 286.16 281.62 285.03 280.01 282.71 C 279.19 280.55 279.38 278.20 279.34 275.94 C 279.43 258.73 279.26 241.52 279.43 224.31 Z" />
</g>
<g id="#60a753ff">
<path fill="#60a753" opacity="1.00" d=" M 265.19 64.12 C 267.07 63.66 269.02 63.64 270.95 63.62 C 297.64 63.69 324.33 63.60 351.02 63.66 C 356.26 63.63 361.54 66.40 364.06 71.07 C 366.33 74.62 366.05 79.03 365.84 83.06 C 365.22 90.31 358.27 96.10 351.07 95.87 C 323.71 95.91 296.33 95.91 268.97 95.87 C 262.02 96.12 255.63 90.85 254.18 84.13 C 251.88 75.99 256.55 65.97 265.19 64.12 M 267.34 74.49 C 262.32 76.34 263.43 85.63 269.17 85.38 C 295.43 85.53 321.70 85.35 347.97 85.47 C 350.04 85.34 352.54 85.74 354.16 84.12 C 357.35 81.23 355.92 74.08 351.04 74.26 C 325.03 74.09 299.01 74.29 273.00 74.17 C 271.11 74.20 269.20 74.10 267.34 74.49 Z" />
<path fill="#60a753" opacity="1.00" d=" M 267.32 108.49 C 294.87 108.17 322.45 108.46 350.02 108.35 C 355.41 108.12 360.98 110.57 363.79 115.31 C 366.37 119.05 366.09 123.83 365.80 128.15 C 364.97 135.27 358.12 140.81 351.02 140.57 C 324.00 140.65 296.99 140.58 269.97 140.61 C 266.06 140.67 261.98 139.67 259.03 136.98 C 253.20 131.85 252.03 122.56 255.86 115.92 C 258.14 111.74 262.56 108.86 267.32 108.49 M 267.12 119.30 C 263.28 120.95 263.17 127.23 266.55 129.43 C 268.22 130.19 270.12 130.08 271.92 130.16 C 295.61 130.11 319.31 130.13 343.00 130.14 C 346.27 130.08 349.60 130.43 352.81 129.70 C 356.11 128.42 356.57 123.74 354.92 121.00 C 353.74 118.92 351.11 118.86 349.01 118.80 C 324.68 118.81 300.35 118.83 276.02 118.79 C 273.05 118.85 270.01 118.52 267.12 119.30 Z" />
<path fill="#60a753" opacity="1.00" d=" M 267.23 151.36 C 294.50 150.95 321.78 151.32 349.06 151.17 C 354.03 150.95 359.33 152.45 362.54 156.48 C 366.60 160.89 366.42 167.41 365.44 172.93 C 363.95 177.37 360.30 182.47 355.03 181.92 C 324.67 181.85 294.30 181.92 263.94 181.89 C 261.05 182.11 258.79 179.92 257.12 177.84 C 252.23 171.55 252.47 161.77 257.96 155.92 C 260.34 153.31 263.72 151.69 267.23 151.36 M 267.15 162.15 C 262.45 164.03 263.40 173.08 268.92 172.82 C 295.28 172.98 321.65 172.79 348.02 172.91 C 349.79 172.83 351.68 173.03 353.37 172.35 C 356.12 170.68 356.45 166.61 354.99 163.99 C 353.82 161.86 351.20 161.67 349.05 161.67 C 324.37 161.68 299.68 161.71 275.00 161.65 C 272.39 161.71 269.69 161.41 267.15 162.15 Z" />
<path fill="#60a753" opacity="1.00" d=" M 144.72 336.77 C 149.78 337.10 155.33 335.61 160.04 337.92 C 164.71 340.80 163.69 347.76 159.32 350.43 C 163.32 353.45 161.67 359.00 164.42 362.82 C 159.07 362.64 161.22 356.03 159.10 352.97 C 155.59 350.43 150.86 351.85 146.81 351.53 C 146.61 355.32 147.52 359.35 146.21 362.97 L 144.86 362.39 C 144.43 353.86 144.77 345.30 144.72 336.77 M 146.83 338.78 C 146.82 342.41 146.85 346.04 146.88 349.68 C 150.23 349.66 153.61 349.91 156.94 349.45 C 161.47 348.34 162.44 340.86 157.81 339.22 C 154.23 338.35 150.48 338.86 146.83 338.78 Z" />
<path fill="#60a753" opacity="1.00" d=" M 172.95 336.78 C 178.45 336.71 183.96 336.55 189.45 336.96 C 189.07 337.37 188.29 338.17 187.90 338.58 C 183.70 339.04 179.46 338.67 175.24 338.77 C 175.24 341.97 175.24 345.17 175.26 348.38 C 179.00 348.47 182.87 347.89 186.53 348.74 L 187.79 350.11 C 183.61 350.45 179.42 350.33 175.23 350.33 C 175.24 353.79 175.24 357.24 175.23 360.70 C 180.02 360.65 184.82 360.53 189.59 361.01 C 188.69 362.07 187.57 362.92 186.09 362.68 C 181.87 362.73 177.62 362.87 173.41 362.55 C 172.57 361.20 173.00 359.47 172.84 357.98 C 172.92 350.91 172.82 343.84 172.95 336.78 Z" />
<path fill="#60a753" opacity="1.00" d=" M 199.95 349.80 C 201.92 345.09 203.58 340.24 206.06 335.75 C 210.44 344.49 213.78 353.72 217.37 362.81 C 213.58 362.63 213.72 357.87 212.22 355.29 C 208.08 355.21 203.93 355.21 199.79 355.29 C 198.53 358.10 198.10 361.78 195.06 363.32 C 195.97 358.58 198.17 354.25 199.95 349.80 M 200.68 353.17 C 204.20 353.16 207.73 353.16 211.26 353.16 C 209.52 348.80 207.74 344.45 205.96 340.11 C 204.17 344.45 202.43 348.81 200.68 353.17 Z" />
<path fill="#60a753" opacity="1.00" d=" M 225.35 337.32 C 225.80 337.06 226.70 336.53 227.16 336.27 C 227.45 344.40 227.23 352.55 227.30 360.69 C 231.61 360.68 235.92 360.67 240.23 360.68 C 240.31 361.16 240.47 362.13 240.55 362.61 C 235.46 362.65 230.36 362.92 225.29 362.54 C 225.05 354.15 224.94 345.70 225.35 337.32 Z" />
<path fill="#60a753" opacity="1.00" d=" M 259.12 336.89 C 265.88 336.55 272.65 336.74 279.42 336.76 L 279.30 338.78 C 274.55 338.81 269.80 337.81 265.06 338.60 C 263.03 338.52 259.96 339.60 259.12 336.89 Z" />
<path fill="#60a753" opacity="1.00" d=" M 287.91 336.82 C 288.38 336.84 289.34 336.88 289.82 336.90 C 290.21 345.34 289.85 353.81 289.98 362.26 C 289.45 362.35 288.40 362.53 287.88 362.62 C 287.64 354.03 287.59 345.41 287.91 336.82 Z" />
<path fill="#60a753" opacity="1.00" d=" M 300.83 336.01 C 305.67 340.50 308.36 346.71 312.34 351.90 C 315.93 346.85 318.97 341.40 322.90 336.59 L 324.05 336.91 C 324.28 345.75 324.67 354.67 323.73 363.49 C 322.72 362.56 321.64 361.54 321.91 360.01 C 321.75 353.84 322.02 347.66 321.82 341.48 C 318.44 345.95 315.61 350.79 312.37 355.36 C 308.78 350.91 306.14 345.81 302.58 341.35 C 302.20 348.50 302.92 355.68 302.20 362.82 L 300.82 362.77 C 300.28 353.88 300.38 344.91 300.83 336.01 Z" />
<path fill="#60a753" opacity="1.00" d=" M 334.72 336.76 C 339.89 336.79 345.08 336.46 350.24 336.90 L 350.60 338.27 C 346.12 339.38 341.41 338.52 336.83 338.76 C 336.83 341.95 336.83 345.15 336.84 348.35 C 340.51 348.40 344.22 348.08 347.88 348.54 C 348.31 348.91 349.18 349.65 349.61 350.02 C 345.37 350.45 341.11 350.36 336.86 350.33 C 336.84 353.78 336.83 357.23 336.85 360.68 C 341.29 360.76 345.75 360.44 350.18 360.86 L 350.66 362.28 C 345.38 363.22 339.99 362.54 334.66 362.58 C 334.72 353.97 334.63 345.36 334.72 336.76 Z" />
<path fill="#60a753" opacity="1.00" d=" M 269.19 339.19 C 270.47 339.44 270.94 340.27 270.61 341.68 C 270.68 347.10 270.59 352.53 270.65 357.95 C 270.48 359.87 271.10 362.42 268.83 363.44 C 268.58 355.38 267.89 347.17 269.19 339.19 Z" />
<path fill="#60a753" opacity="1.00" d=" M 165.72 388.78 C 169.79 388.84 173.95 388.24 177.96 389.12 C 184.10 390.90 184.14 400.74 178.43 403.14 C 174.94 404.01 171.28 403.57 167.72 403.65 C 167.53 407.43 168.42 411.44 167.07 415.06 L 165.87 414.30 C 165.41 405.81 165.79 397.28 165.72 388.78 M 167.74 390.76 C 167.74 394.39 167.74 398.03 167.73 401.66 C 170.84 401.65 173.97 401.89 177.06 401.45 C 181.25 400.05 181.80 393.26 177.83 391.31 C 174.57 390.31 171.09 390.87 167.74 390.76 Z" />
<path fill="#60a753" opacity="1.00" d=" M 191.43 388.70 C 196.60 388.85 201.81 388.36 206.96 388.98 L 207.37 390.41 C 202.75 391.09 198.07 390.70 193.43 390.74 C 193.43 393.95 193.43 397.16 193.45 400.38 C 197.20 400.43 200.98 400.06 204.71 400.54 C 204.99 400.86 205.56 401.49 205.84 401.80 C 201.77 402.74 197.56 402.27 193.42 402.32 C 193.43 405.77 193.43 409.23 193.42 412.69 C 198.22 412.68 203.03 412.53 207.83 412.95 C 207.35 413.35 206.40 414.15 205.92 414.55 C 201.07 414.95 196.20 414.60 191.34 414.65 C 191.32 406.00 191.19 397.35 191.43 388.70 Z" />
<path fill="#60a753" opacity="1.00" d=" M 139.31 389.37 C 143.40 387.76 148.53 388.06 152.01 390.92 C 157.83 395.58 158.31 405.06 153.82 410.78 C 149.92 415.66 142.20 416.50 137.19 412.88 C 129.51 407.33 130.35 393.22 139.31 389.37 M 140.22 391.31 C 130.84 395.39 132.78 412.56 143.61 412.90 C 151.44 413.94 156.59 404.78 154.08 397.98 C 152.75 392.09 145.66 388.58 140.22 391.31 Z" />
<path fill="#60a753" opacity="1.00" d=" M 215.85 388.78 C 220.88 389.03 226.28 387.73 231.04 389.77 C 235.93 392.52 234.97 399.78 230.45 402.41 C 234.57 405.17 232.56 410.81 235.77 414.14 C 235.01 414.31 234.25 414.39 233.50 414.53 C 230.08 411.91 233.15 405.95 228.92 404.04 C 225.43 403.06 221.73 403.62 218.15 403.54 C 218.22 407.45 218.25 411.38 217.82 415.29 C 216.67 414.53 215.45 413.70 215.82 412.11 C 215.75 404.34 215.80 396.56 215.85 388.78 M 218.20 390.75 C 218.16 394.39 218.16 398.03 218.15 401.67 C 221.41 401.66 224.69 401.90 227.93 401.49 C 232.33 400.57 233.63 393.63 229.56 391.47 C 225.94 390.15 221.97 390.94 218.20 390.75 Z" />
<path fill="#60a753" opacity="1.00" d=" M 243.65 408.77 C 246.86 401.86 248.87 394.38 252.84 387.83 C 256.32 395.00 258.94 402.54 262.14 409.84 C 262.61 411.57 264.12 413.45 262.99 415.24 C 260.49 413.32 260.01 409.97 258.75 407.27 C 254.66 407.22 250.57 407.23 246.49 407.24 C 245.35 410.05 244.19 412.85 242.83 415.56 C 240.82 413.45 243.04 410.94 243.65 408.77 M 252.46 392.49 C 250.63 396.67 248.99 400.94 247.26 405.17 C 250.80 405.16 254.33 405.15 257.87 405.16 C 256.17 400.88 254.49 396.61 252.46 392.49 Z" />
<path fill="#60a753" opacity="1.00" d=" M 268.91 388.92 C 275.63 388.66 282.39 388.49 289.10 388.92 L 289.51 390.35 C 286.51 390.87 283.45 390.73 280.43 390.68 C 280.20 398.96 280.76 407.25 280.07 415.51 C 278.84 414.63 278.26 413.47 278.33 412.02 C 278.24 404.91 278.37 397.80 278.32 390.70 C 275.23 390.24 270.86 392.10 268.91 388.92 Z" />
<path fill="#60a753" opacity="1.00" d=" M 297.83 388.17 C 300.44 389.03 299.63 391.88 299.79 393.95 C 299.56 400.55 300.07 407.18 299.56 413.76 C 299.15 414.19 298.32 415.05 297.91 415.48 C 297.43 406.39 297.56 397.27 297.83 388.17 Z" />
<path fill="#60a753" opacity="1.00" d=" M 310.26 408.97 C 310.53 401.95 309.79 394.88 310.76 387.89 C 317.19 395.09 322.31 403.33 328.35 410.85 C 328.61 403.76 327.98 396.61 328.62 389.55 C 328.97 389.17 329.68 388.41 330.04 388.03 C 330.44 397.15 330.51 406.31 329.99 415.43 C 328.65 414.29 327.33 413.10 326.28 411.68 C 321.66 405.38 317.06 399.06 312.31 392.87 C 312.11 400.35 312.51 407.85 312.04 415.33 C 309.52 414.14 310.45 411.17 310.26 408.97 Z" />
<path fill="#60a753" opacity="1.00" d=" M 341.24 394.32 C 343.51 390.63 347.80 388.42 352.10 388.42 C 355.32 388.39 359.30 388.86 360.75 392.24 C 356.59 391.38 352.16 389.26 348.02 391.34 C 340.98 394.08 339.15 404.30 344.39 409.58 C 347.97 413.69 354.13 413.53 358.76 411.51 C 358.72 408.94 358.70 406.38 358.67 403.82 C 356.31 403.73 353.95 403.69 351.60 403.63 C 351.65 403.16 351.76 402.21 351.81 401.74 C 354.76 401.69 357.71 401.54 360.66 401.80 C 361.01 405.32 360.89 408.86 360.96 412.40 C 356.29 415.55 349.88 416.19 345.08 412.97 C 338.92 409.19 337.49 400.26 341.24 394.32 Z" />
<path fill="#60a753" opacity="1.00" d=" M 182.41 441.38 C 186.98 439.32 193.75 440.26 195.73 445.48 C 192.42 444.67 189.56 441.90 185.99 442.43 C 181.51 442.10 178.91 448.64 183.20 450.74 C 186.33 452.55 190.10 452.97 193.08 455.07 C 196.40 457.56 196.18 463.32 192.57 465.48 C 187.66 468.81 180.83 466.90 177.28 462.45 C 177.67 462.18 178.44 461.64 178.83 461.37 C 181.36 463.56 184.39 465.52 187.92 464.91 C 191.18 465.08 194.66 461.47 192.70 458.30 C 189.62 453.87 182.67 455.04 179.65 450.51 C 177.58 447.42 179.02 442.83 182.41 441.38 Z" />
<path fill="#60a753" opacity="1.00" d=" M 250.87 440.94 C 254.89 440.41 258.96 440.83 263.00 440.68 C 265.82 440.81 268.99 440.10 271.38 442.05 C 268.15 442.82 264.83 442.78 261.54 442.71 C 261.26 450.85 261.99 459.04 261.14 467.16 C 260.74 466.89 259.95 466.34 259.56 466.07 C 259.18 458.29 259.56 450.48 259.40 442.69 C 256.36 442.59 253.18 443.18 250.26 442.13 L 250.87 440.94 Z" />
<path fill="#60a753" opacity="1.00" d=" M 201.67 441.90 C 200.96 439.19 204.09 441.23 204.47 442.40 C 206.71 445.50 208.98 448.57 211.36 451.58 C 214.20 447.81 216.51 443.60 219.87 440.26 L 220.94 441.21 C 218.84 445.94 214.69 449.40 212.45 454.03 C 212.02 458.12 212.37 462.25 212.32 466.37 C 211.79 466.45 210.73 466.62 210.20 466.71 C 210.07 462.50 210.46 458.28 209.98 454.09 C 207.78 449.66 203.92 446.30 201.67 441.90 Z" />
<path fill="#60a753" opacity="1.00" d=" M 231.24 441.29 C 234.39 439.96 238.22 440.09 241.26 441.68 C 242.56 442.50 244.35 443.76 243.44 445.53 C 240.21 443.95 236.83 441.21 233.05 442.79 C 230.12 443.41 228.19 447.26 230.44 449.63 C 233.57 452.61 238.35 452.62 241.81 455.10 C 244.84 457.59 244.75 463.20 241.37 465.37 C 237.03 468.33 230.78 467.43 227.10 463.82 C 226.46 463.02 225.58 461.83 227.11 461.45 C 229.90 463.04 232.54 465.53 236.05 464.93 C 239.47 465.28 243.19 461.87 241.38 458.40 C 238.46 454.14 232.18 454.94 228.78 451.28 C 226.13 448.15 227.35 442.78 231.24 441.29 Z" />
<path fill="#60a753" opacity="1.00" d=" M 278.72 440.76 C 283.88 440.79 289.06 440.46 294.21 440.88 C 295.63 443.18 292.11 442.67 290.93 442.79 C 287.57 442.82 284.20 442.75 280.83 442.76 C 280.84 445.95 280.83 449.15 280.84 452.35 C 284.46 452.40 288.11 452.10 291.72 452.50 C 292.18 452.89 293.11 453.66 293.58 454.04 C 289.35 454.45 285.10 454.35 280.87 454.32 C 280.83 457.78 280.84 461.23 280.87 464.69 C 285.30 464.69 289.74 464.66 294.17 464.69 C 294.26 465.17 294.44 466.14 294.53 466.62 C 289.41 466.62 284.28 466.95 279.17 466.56 C 278.32 465.25 278.81 463.49 278.64 462.02 C 278.72 454.93 278.63 447.84 278.72 440.76 Z" />
<path fill="#60a753" opacity="1.00" d=" M 303.27 459.94 C 303.67 453.35 302.57 446.64 303.87 440.13 C 308.48 444.70 311.29 450.73 315.08 455.96 C 318.79 450.79 321.87 445.15 325.97 440.27 C 327.81 442.32 326.85 445.45 327.03 447.98 C 326.51 453.96 327.52 459.99 326.82 465.95 C 326.72 467.55 324.25 466.64 324.82 465.16 C 324.52 458.50 324.92 451.82 324.65 445.16 C 321.47 449.61 318.83 454.44 315.47 458.76 C 314.26 458.84 313.79 457.57 313.15 456.80 C 310.54 452.88 308.07 448.88 305.38 445.02 C 305.14 452.49 305.62 459.97 305.06 467.43 C 302.35 465.86 303.54 462.47 303.27 459.94 Z" />
</g>
<g id="#b0d4aaff">
<path fill="#b0d4aa" opacity="1.00" d=" M 164.25 88.25 C 166.13 87.86 168.07 87.79 169.99 87.76 C 192.64 87.81 215.28 87.80 237.93 87.76 C 241.56 87.76 245.43 88.25 248.34 90.63 C 255.33 96.04 255.41 107.97 248.52 113.49 C 245.64 116.00 241.69 116.49 238.02 116.45 C 214.69 116.37 191.37 116.45 168.05 116.42 C 162.70 116.66 157.35 113.62 155.26 108.61 C 151.40 100.99 155.53 90.04 164.25 88.25 M 166.28 97.48 C 162.23 98.48 162.15 105.48 166.06 106.74 C 170.01 107.44 174.05 107.03 178.04 107.10 C 197.69 107.11 217.33 107.06 236.98 107.13 C 238.76 107.02 240.67 107.17 242.34 106.41 C 245.75 104.08 244.64 97.24 240.08 97.31 C 217.72 97.04 195.34 97.34 172.97 97.17 C 170.74 97.18 168.48 97.10 166.28 97.48 Z" />
<path fill="#b0d4aa" opacity="1.00" d=" M 164.47 127.69 C 166.29 127.37 168.15 127.35 169.99 127.32 C 193.01 127.40 216.03 127.34 239.05 127.35 C 242.68 127.30 246.51 128.22 249.16 130.85 C 255.48 136.63 255.08 148.08 248.18 153.25 C 245.32 155.56 241.52 155.95 237.98 155.90 C 214.29 155.78 190.59 155.97 166.90 155.81 C 161.17 155.86 155.98 151.59 154.51 146.11 C 152.00 138.68 156.40 129.13 164.47 127.69 M 165.30 137.34 C 162.33 139.28 162.49 144.70 165.80 146.19 C 167.47 146.66 169.23 146.59 170.95 146.63 C 193.93 146.46 216.92 146.71 239.89 146.52 C 243.92 146.70 245.55 141.38 243.41 138.48 C 242.31 136.62 239.91 136.74 238.04 136.62 C 215.37 136.65 192.70 136.68 170.04 136.61 C 168.46 136.74 166.73 136.54 165.30 137.34 Z" />
<path fill="#b0d4aa" opacity="1.00" d=" M 164.36 165.60 C 166.19 165.25 168.07 165.21 169.93 165.19 C 192.97 165.27 216.00 165.21 239.04 165.21 C 242.71 165.16 246.57 166.11 249.24 168.77 C 255.52 174.60 255.03 186.02 248.12 191.15 C 244.99 193.67 240.82 193.84 236.99 193.79 C 213.65 193.66 190.31 193.87 166.97 193.69 C 161.09 193.76 155.79 189.31 154.41 183.66 C 152.11 176.33 156.47 167.07 164.36 165.60 M 166.49 174.74 C 163.05 175.48 162.34 180.24 164.20 182.77 C 165.52 184.65 168.03 184.39 170.03 184.49 C 193.30 184.36 216.59 184.57 239.87 184.39 C 244.11 184.58 245.66 178.75 243.10 175.95 C 241.88 174.43 239.74 174.60 238.00 174.48 C 217.64 174.53 197.29 174.51 176.93 174.50 C 173.45 174.54 169.94 174.24 166.49 174.74 Z" />
</g>
</svg>
