<?xml version="1.0" encoding="UTF-8" ?>
<!DOCTYPE svg PUBLIC "-//W3C//DTD SVG 1.1//EN" "http://www.w3.org/Graphics/SVG/1.1/DTD/svg11.dtd">
<svg width="500pt" height="500pt" viewBox="0 0 500 500" version="1.1" xmlns="http://www.w3.org/2000/svg">
<g id="#ffffffff">
<path fill="#ffffff" opacity="1.00" d=" M 0.00 0.00 L 500.00 0.00 L 500.00 500.00 L 436.42 500.00 C 440.27 493.30 444.01 486.53 447.91 479.85 C 449.18 477.48 450.87 474.47 449.15 471.89 C 447.97 469.66 445.24 469.51 443.03 469.45 C 314.37 469.48 185.70 469.47 57.04 469.46 C 54.57 469.41 51.63 469.96 50.57 472.52 C 49.23 475.03 51.11 477.59 52.23 479.78 C 56.46 486.76 59.86 494.53 66.15 500.00 L 0.00 500.00 L 0.00 0.00 M 259.41 11.55 C 249.99 14.27 247.30 27.46 253.48 34.53 C 256.19 37.97 260.70 39.30 264.94 39.21 C 287.98 39.19 311.01 39.20 334.05 39.21 C 340.49 39.70 348.12 35.12 347.92 28.06 C 347.74 24.03 348.86 19.31 345.93 15.99 C 343.22 12.26 338.52 10.70 334.05 10.80 C 313.03 10.79 292.01 10.82 271.00 10.79 C 267.13 10.83 263.17 10.48 259.41 11.55 M 181.31 33.52 C 174.70 34.48 171.19 42.49 173.52 48.40 C 174.88 52.85 179.39 55.84 184.01 55.50 C 202.31 55.51 220.62 55.48 238.93 55.52 C 242.27 55.63 245.82 54.69 247.98 51.98 C 250.54 49.34 249.92 45.35 249.91 42.00 C 250.00 36.44 244.10 32.79 238.98 33.27 C 219.76 33.44 200.51 32.93 181.31 33.52 M 261.20 50.25 C 250.93 51.56 246.92 65.35 252.98 73.01 C 255.88 77.14 261.13 78.62 265.97 78.30 C 288.98 78.22 311.99 78.30 335.01 78.26 C 341.21 78.51 348.25 73.70 347.92 67.01 C 347.76 63.02 348.81 58.35 345.91 55.06 C 343.20 51.32 338.45 49.85 334.00 49.92 C 311.68 49.87 289.37 49.95 267.05 49.88 C 265.10 49.90 263.13 49.94 261.20 50.25 M 180.33 64.62 C 172.64 66.73 170.45 77.61 175.80 83.17 C 178.52 86.47 183.09 86.58 187.01 86.49 C 204.68 86.36 222.35 86.53 240.02 86.42 C 244.18 86.51 248.54 83.89 249.66 79.75 C 250.10 76.65 250.18 73.42 249.54 70.35 C 248.10 66.57 244.06 64.15 240.08 64.25 C 222.72 64.11 205.35 64.29 187.99 64.17 C 185.43 64.19 182.85 64.10 180.33 64.62 M 250.17 100.55 C 248.14 96.32 243.76 93.44 238.99 93.75 C 221.32 93.71 203.64 93.79 185.97 93.71 C 182.63 93.72 178.94 94.03 176.42 96.48 C 171.47 100.97 171.71 109.72 176.92 113.91 C 178.83 115.69 181.58 115.38 183.99 115.46 C 203.32 115.34 222.66 115.46 241.99 115.41 C 247.36 115.65 250.21 109.97 250.75 105.38 C 251.61 110.24 255.75 115.17 261.03 114.90 C 284.69 114.89 308.34 114.88 331.99 114.91 C 334.90 114.86 337.84 115.14 340.72 114.62 C 345.00 113.04 348.43 108.66 347.94 103.95 C 347.77 100.25 348.71 96.00 346.16 92.89 C 343.64 89.33 339.27 87.39 334.95 87.55 C 310.96 87.57 286.97 87.48 262.99 87.60 C 256.04 87.50 250.37 93.80 250.17 100.55 M 283.31 142.04 C 283.20 163.02 283.25 184.01 283.28 204.99 C 283.09 208.51 286.65 211.53 290.11 210.71 C 293.54 210.68 295.32 207.05 295.21 204.01 C 295.32 189.54 295.03 175.07 295.35 160.60 C 301.32 169.64 306.89 178.95 312.82 188.01 C 314.95 191.57 320.29 192.20 322.88 188.81 C 329.19 179.78 334.82 170.26 341.23 161.29 C 341.37 176.10 341.10 190.93 341.35 205.73 C 341.99 211.32 349.28 212.00 353.02 208.98 C 353.73 207.08 354.41 205.12 354.26 203.06 C 354.18 182.67 354.36 162.28 354.18 141.89 C 353.69 136.58 345.95 134.34 342.91 138.86 C 334.64 150.75 326.91 163.02 318.62 174.89 C 310.56 163.06 303.10 150.82 295.03 138.99 C 292.01 134.40 283.37 136.28 283.31 142.04 M 376.80 139.92 C 377.01 140.63 378.01 141.55 377.22 142.23 C 376.44 143.16 375.53 141.70 374.82 141.41 C 365.71 149.28 365.21 165.47 375.10 172.88 C 383.55 179.65 395.31 177.58 404.45 182.72 C 408.24 184.73 409.96 189.54 408.39 193.51 C 406.34 196.84 402.62 198.74 398.89 199.54 C 392.26 200.46 385.06 199.72 379.58 195.57 C 377.03 193.98 374.32 190.79 371.03 192.21 C 366.64 193.29 365.23 199.44 368.52 202.47 C 376.67 211.17 389.62 212.92 400.90 211.31 C 409.66 209.79 418.55 204.17 420.88 195.13 C 422.38 188.05 421.55 179.35 415.45 174.59 C 406.68 167.46 394.47 168.92 384.72 164.04 C 380.22 162.11 378.61 155.63 381.83 151.91 C 384.72 148.32 389.63 147.42 393.99 147.34 C 400.59 147.42 406.73 150.36 412.13 153.92 C 416.71 155.93 421.42 150.41 419.42 145.99 C 417.26 141.95 412.79 139.84 408.76 138.09 C 398.50 134.08 386.48 134.53 376.80 139.92 M 81.94 143.94 C 81.81 162.95 81.95 181.97 81.87 200.99 C 81.89 203.13 81.86 205.37 82.76 207.37 C 84.66 210.44 88.92 211.54 92.21 210.26 C 94.47 209.11 95.09 206.32 95.18 204.01 C 95.25 197.21 95.11 190.41 95.24 183.62 C 102.51 183.74 109.79 183.46 117.05 183.75 C 120.82 183.94 124.83 186.93 124.82 190.95 C 125.28 197.28 125.60 204.85 131.26 208.95 C 134.76 211.78 141.83 211.99 143.23 206.86 C 144.19 203.13 140.51 201.05 138.50 198.62 C 136.94 193.87 137.92 188.56 135.48 184.06 C 134.34 181.48 132.20 179.59 130.08 177.82 C 134.10 174.32 137.98 170.27 139.33 164.94 C 143.31 152.63 134.20 137.52 120.97 136.63 C 109.99 136.44 98.99 136.51 88.01 136.59 C 84.07 136.34 81.70 140.39 81.94 143.94 M 151.34 139.37 C 149.84 141.76 150.89 144.65 151.94 147.00 C 153.59 147.66 155.26 148.44 157.09 148.38 C 162.64 148.46 168.20 148.36 173.75 148.39 C 173.75 166.93 173.75 185.48 173.75 204.02 C 173.52 206.64 175.10 209.25 177.52 210.27 C 180.39 211.48 183.47 210.42 186.01 208.97 C 186.64 207.39 187.40 205.80 187.28 204.05 C 187.29 185.50 187.28 166.94 187.29 148.39 C 193.20 148.34 199.11 148.51 205.02 148.33 C 208.34 148.43 211.14 145.36 210.55 142.04 C 210.78 138.52 207.17 136.22 203.96 136.55 C 188.66 136.50 173.36 136.55 158.07 136.53 C 155.60 136.43 152.54 136.90 151.34 139.37 M 222.31 141.98 C 222.17 162.66 222.30 183.35 222.25 204.03 C 221.80 207.39 224.56 210.86 228.04 210.72 C 240.04 210.79 252.04 210.73 264.04 210.74 C 266.98 211.04 270.25 209.03 270.48 205.92 C 271.29 202.14 267.72 198.69 264.06 198.80 C 254.45 198.75 244.84 198.80 235.23 198.79 C 235.25 192.11 235.23 185.43 235.25 178.74 C 243.49 178.72 251.73 178.80 259.97 178.72 C 263.09 178.90 266.03 176.11 265.76 172.94 C 265.97 169.31 262.44 166.59 259.01 166.80 C 251.08 166.76 243.16 166.81 235.23 166.80 C 235.25 160.66 235.24 154.52 235.24 148.39 C 244.48 148.40 253.73 148.39 262.97 148.41 C 264.78 148.33 266.79 148.50 268.30 147.29 C 272.67 144.53 270.38 136.40 265.03 136.62 C 253.05 136.42 241.05 136.57 229.06 136.54 C 225.82 136.17 222.28 138.53 222.31 141.98 M 108.33 225.43 C 90.92 232.77 79.76 251.35 79.72 270.02 C 79.68 315.65 79.73 361.30 79.70 406.94 C 79.57 420.21 84.55 433.62 93.99 443.06 C 102.05 451.34 113.42 456.37 125.02 456.37 C 208.34 456.37 291.67 456.36 375.00 456.38 C 384.52 456.45 393.96 453.18 401.51 447.41 C 413.66 438.27 420.79 423.10 420.67 407.96 C 420.67 361.94 420.69 315.93 420.67 269.91 C 420.68 253.83 412.42 237.84 398.85 229.06 C 395.25 226.82 391.38 224.38 386.96 224.54 C 298.31 224.60 209.66 224.55 121.01 224.56 C 116.79 224.72 112.38 223.92 108.33 225.43 Z" />
<path fill="#ffffff" opacity="1.00" d=" M 262.22 20.38 C 264.46 20.01 266.76 20.14 269.03 20.12 C 291.03 20.21 313.04 20.08 335.05 20.18 C 339.99 19.59 341.36 27.25 337.44 29.43 C 336.02 29.93 334.49 29.82 333.02 29.88 C 309.97 29.79 286.93 29.92 263.88 29.82 C 258.67 30.47 257.57 21.75 262.22 20.38 Z" />
<path fill="#ffffff" opacity="1.00" d=" M 182.49 40.67 C 199.95 40.09 217.47 40.67 234.95 40.40 C 237.25 40.51 239.71 40.11 241.89 41.03 C 243.92 42.63 244.04 46.25 241.85 47.74 C 240.00 48.56 237.90 48.26 235.94 48.37 C 218.61 48.21 201.28 48.45 183.96 48.27 C 179.61 48.97 178.71 41.78 182.49 40.67 Z" />
<path fill="#ffffff" opacity="1.00" d=" M 262.30 59.45 C 263.85 59.17 265.44 59.21 267.02 59.19 C 289.71 59.30 312.41 59.14 335.10 59.26 C 339.96 58.79 341.35 66.27 337.50 68.50 C 335.42 69.20 333.19 69.05 331.04 69.11 C 308.67 68.97 286.30 69.23 263.93 68.99 C 258.67 69.54 257.54 60.83 262.30 59.45 Z" />
<path fill="#ffffff" opacity="1.00" d=" M 182.41 71.64 C 198.58 71.03 214.81 71.58 231.00 71.38 C 234.44 71.45 237.93 71.06 241.33 71.69 C 244.66 73.08 243.92 79.22 240.06 79.15 C 223.37 79.48 206.66 79.13 189.97 79.31 C 187.67 79.31 185.35 79.40 183.06 79.08 C 179.32 78.91 179.07 72.60 182.41 71.64 Z" />
<path fill="#ffffff" opacity="1.00" d=" M 263.04 106.81 C 258.67 105.64 257.83 98.79 262.11 96.98 C 265.02 96.40 268.03 96.67 270.99 96.63 C 291.65 96.65 312.32 96.66 332.99 96.62 C 334.94 96.72 337.41 96.48 338.66 98.35 C 340.93 101.19 339.41 105.78 335.93 106.80 C 311.64 106.61 287.34 106.59 263.04 106.81 Z" />
<path fill="#ffffff" opacity="1.00" d=" M 182.28 101.38 C 185.50 100.85 188.78 101.14 192.02 101.10 C 207.00 101.11 221.97 101.15 236.95 101.08 C 238.52 101.12 240.12 101.10 241.66 101.49 C 244.05 102.93 244.05 107.07 241.65 108.45 C 238.83 109.06 235.91 108.79 233.05 108.83 C 217.01 108.77 200.97 108.82 184.93 108.82 C 183.44 108.70 181.51 108.91 180.66 107.36 C 179.72 105.43 179.84 102.08 182.28 101.38 Z" />
<path fill="#ffffff" opacity="1.00" d=" M 95.20 148.39 C 102.81 148.43 110.41 148.35 118.02 148.41 C 121.02 148.26 123.38 150.60 124.84 152.97 C 127.87 158.04 126.90 164.73 123.70 169.48 C 122.46 170.85 121.20 172.83 119.13 172.78 C 111.15 172.93 103.17 172.78 95.19 172.84 C 95.20 164.69 95.19 156.54 95.20 148.39 Z" />
<path fill="#ffffff" opacity="1.00" d=" M 118.40 237.60 C 121.22 236.93 124.14 236.72 127.03 236.69 C 206.39 236.73 285.74 236.70 365.09 236.71 C 372.05 236.78 379.36 236.03 385.92 238.91 C 395.54 242.83 402.56 251.90 404.90 261.91 C 406.07 266.49 405.84 271.26 405.86 275.95 C 405.81 320.31 405.89 364.67 405.82 409.03 C 405.89 425.18 392.75 441.31 376.01 441.56 C 292.68 441.63 209.34 441.55 126.00 441.60 C 117.97 441.82 110.06 438.37 104.48 432.65 C 97.81 425.92 94.35 416.38 94.49 406.96 C 94.52 361.29 94.46 315.62 94.52 269.96 C 94.54 255.62 104.14 241.15 118.40 237.60 M 117.23 255.30 C 114.21 256.54 112.87 259.87 113.12 262.97 C 113.15 314.33 113.08 365.70 113.15 417.06 C 112.77 421.35 116.68 425.03 120.94 424.50 C 203.99 424.49 287.03 424.49 370.07 424.50 C 373.70 424.45 377.37 424.79 380.96 424.17 C 384.00 423.30 385.95 420.16 385.65 417.05 C 385.67 365.70 385.62 314.34 385.67 262.98 C 385.65 260.88 385.54 258.54 383.91 256.99 C 381.18 253.87 376.64 254.81 372.98 254.64 C 291.65 254.72 210.33 254.66 129.01 254.67 C 125.09 254.80 121.03 254.16 117.23 255.30 Z" />
<path fill="#ffffff" opacity="1.00" d=" M 127.10 268.45 C 208.65 268.53 290.19 268.53 371.73 268.45 C 371.83 315.86 371.76 363.27 371.77 410.67 C 290.20 410.66 208.63 410.63 127.06 410.69 C 126.76 374.13 127.05 337.56 126.93 301.00 C 127.02 290.15 126.73 279.29 127.10 268.45 M 202.25 276.63 C 198.48 285.61 194.35 294.50 191.44 303.80 C 195.29 303.02 194.30 297.82 196.99 296.02 C 200.88 295.63 204.81 295.86 208.70 296.06 C 210.10 298.79 210.22 302.76 213.59 303.87 C 212.57 298.65 209.96 293.94 208.11 289.00 C 206.20 284.86 205.22 280.19 202.25 276.63 M 141.11 277.62 C 141.38 285.99 140.93 294.38 141.32 302.74 C 141.79 303.01 142.73 303.54 143.20 303.81 C 143.39 299.97 143.32 296.12 143.32 292.28 C 146.91 292.47 150.66 291.76 154.15 292.75 C 157.33 293.75 156.42 297.54 157.03 300.05 C 157.18 301.79 158.66 304.01 160.65 303.17 C 158.48 299.29 159.57 294.20 155.99 291.08 C 157.57 289.27 159.77 287.60 159.57 284.91 C 160.11 281.11 156.77 277.44 152.96 277.56 C 149.02 277.35 145.06 277.46 141.11 277.62 M 169.57 277.52 C 169.50 286.12 169.51 294.72 169.57 303.32 C 175.04 303.26 180.53 303.54 186.00 303.08 C 185.60 302.71 184.81 301.97 184.41 301.60 C 180.20 301.09 175.92 301.53 171.68 301.40 C 171.68 297.99 171.68 294.58 171.69 291.17 C 175.58 291.13 179.48 291.32 183.37 291.04 C 183.36 290.54 183.36 289.54 183.35 289.03 C 179.46 288.77 175.55 288.97 171.66 288.87 C 171.68 285.73 171.68 282.58 171.68 279.44 C 176.40 279.38 181.12 279.59 185.84 279.21 L 184.74 277.79 C 179.74 277.07 174.62 277.65 169.57 277.52 M 221.80 277.06 C 221.53 285.81 221.73 294.57 221.68 303.32 C 227.03 303.26 232.40 303.54 237.74 303.08 C 237.29 302.69 236.38 301.89 235.93 301.50 C 231.88 301.23 227.82 301.46 223.77 301.38 C 223.68 293.64 223.97 285.88 223.66 278.15 C 223.19 277.87 222.26 277.33 221.80 277.06 M 255.30 279.06 C 258.48 279.39 261.69 279.34 264.89 279.32 C 264.98 287.29 264.69 295.26 265.01 303.22 C 265.53 303.23 266.57 303.24 267.09 303.25 C 267.43 295.28 267.13 287.30 267.22 279.32 C 270.39 279.34 273.57 279.38 276.73 279.09 C 276.28 278.72 275.38 277.98 274.93 277.61 C 269.01 277.37 263.06 277.39 257.14 277.60 C 256.68 277.97 255.76 278.70 255.30 279.06 M 284.46 278.16 C 284.09 286.40 284.23 294.70 284.39 302.95 C 284.85 303.07 285.77 303.31 286.24 303.43 C 286.54 294.87 286.51 286.27 286.26 277.72 L 284.89 277.28 L 284.46 278.16 M 296.86 285.00 C 296.99 291.07 296.68 297.16 297.01 303.24 C 297.51 303.23 298.51 303.21 299.01 303.20 C 299.36 296.09 298.96 288.96 299.21 281.85 C 302.45 286.57 305.23 291.62 308.90 296.04 C 312.21 291.40 315.11 286.46 318.48 281.86 C 318.69 289.19 318.28 296.54 318.73 303.88 C 319.19 303.57 320.09 302.95 320.54 302.64 C 320.64 294.01 321.14 285.28 320.22 276.68 C 315.61 281.20 312.92 287.21 308.95 292.24 C 304.70 287.46 302.08 281.47 297.80 276.69 C 296.46 279.26 296.93 282.21 296.86 285.00 M 331.11 277.62 C 331.24 286.17 331.20 294.72 331.14 303.27 C 336.67 303.29 342.22 303.54 347.74 303.07 C 347.30 302.68 346.41 301.89 345.96 301.49 C 341.76 301.22 337.55 301.46 333.34 301.41 C 333.32 297.99 333.32 294.57 333.32 291.16 C 337.28 291.13 341.25 291.33 345.20 291.02 C 345.19 290.53 345.16 289.54 345.15 289.04 C 341.20 288.76 337.24 288.97 333.29 288.90 C 333.32 285.73 333.32 282.57 333.33 279.42 C 337.51 279.36 341.71 279.63 345.89 279.31 C 346.36 278.94 347.29 278.22 347.76 277.85 C 342.23 277.20 336.66 277.47 331.11 277.62 M 136.46 329.81 C 127.74 332.94 125.97 345.57 131.95 352.01 C 136.60 357.32 146.07 356.97 150.40 351.43 C 154.20 346.55 154.33 339.21 150.90 334.10 C 147.83 329.47 141.54 328.07 136.46 329.81 M 337.74 334.95 C 333.95 340.85 335.33 349.86 341.47 353.64 C 346.25 356.80 352.63 356.23 357.36 353.28 C 357.32 349.67 357.33 346.06 357.32 342.46 C 353.98 342.81 349.80 341.18 347.26 344.04 C 349.90 344.42 352.57 344.44 355.24 344.48 C 355.23 347.06 355.23 349.63 355.22 352.21 C 350.98 354.12 345.54 354.53 341.90 351.17 C 336.36 346.80 336.64 337.30 342.44 333.27 C 346.56 329.97 352.20 331.20 356.61 333.21 C 357.01 330.51 354.20 329.88 352.20 329.43 C 346.89 328.26 340.65 330.15 337.74 334.95 M 162.12 329.62 C 162.32 338.12 162.02 346.64 162.26 355.14 C 162.73 355.18 163.68 355.26 164.16 355.30 C 164.44 351.64 164.26 347.97 164.28 344.31 C 167.54 344.28 170.82 344.52 174.07 344.14 C 180.37 342.51 181.10 332.20 174.89 329.95 C 170.71 329.04 166.36 329.56 162.12 329.62 M 187.76 329.56 C 187.70 338.14 187.71 346.72 187.76 355.30 C 193.20 355.30 198.65 355.48 204.09 355.14 L 202.91 353.67 C 198.69 353.04 194.38 353.52 190.12 353.43 C 190.08 350.01 190.08 346.60 190.06 343.19 C 194.16 343.14 198.27 343.27 202.37 342.99 C 202.03 342.50 201.36 341.52 201.02 341.03 C 197.38 340.74 193.73 340.96 190.08 340.92 C 190.08 337.75 190.08 334.58 190.10 331.41 C 194.78 331.40 199.47 331.60 204.13 331.18 L 202.93 329.78 C 197.92 329.10 192.81 329.61 187.76 329.56 M 212.44 329.52 C 212.35 336.69 212.42 343.86 212.37 351.03 C 212.63 352.76 211.67 355.51 214.34 355.87 C 214.65 352.02 214.55 348.16 214.55 344.31 C 217.91 344.33 221.30 344.05 224.65 344.48 C 230.46 345.58 225.38 355.96 232.42 355.38 C 231.75 354.29 231.07 353.21 230.38 352.15 C 230.35 348.81 229.85 345.25 227.03 343.06 C 228.50 341.59 230.44 340.20 230.67 337.96 C 231.60 334.25 228.91 329.87 224.97 329.63 C 220.80 329.29 216.62 329.53 212.44 329.52 M 243.13 342.26 C 241.36 346.73 239.22 351.07 237.99 355.73 C 241.45 354.86 241.52 350.61 242.94 347.92 C 247.03 347.84 251.13 347.84 255.22 347.91 C 256.79 350.55 256.61 355.35 260.44 355.56 C 258.75 350.40 256.47 345.46 254.47 340.42 C 252.77 336.41 251.45 332.21 249.08 328.52 C 246.66 332.90 245.08 337.67 243.13 342.26 M 265.23 331.10 C 268.39 331.38 271.57 331.34 274.74 331.33 C 274.84 339.20 274.52 347.08 274.88 354.94 C 275.39 355.10 276.41 355.41 276.92 355.56 C 276.91 347.49 276.85 339.41 276.95 331.34 C 280.14 330.93 284.17 332.49 286.63 329.86 C 280.13 329.25 273.57 329.40 267.05 329.61 C 266.60 329.98 265.68 330.72 265.23 331.10 M 294.15 329.81 C 294.08 338.40 294.18 346.99 294.13 355.58 C 294.63 355.42 295.64 355.09 296.14 354.93 C 296.44 346.52 296.36 338.07 296.18 329.66 C 295.67 329.70 294.66 329.77 294.15 329.81 M 306.86 329.64 C 306.61 338.36 306.66 347.10 306.87 355.82 L 308.53 354.82 C 309.01 347.33 308.74 339.79 308.33 332.30 C 313.01 339.65 318.50 346.43 323.62 353.47 C 324.47 354.02 325.77 357.02 326.61 354.89 C 327.11 347.95 326.61 340.95 326.83 333.98 C 326.66 332.64 327.51 328.06 324.92 329.84 C 324.51 336.98 324.96 344.14 324.71 351.28 C 318.93 344.18 314.05 336.33 308.05 329.44 L 306.86 329.64 M 180.34 381.54 C 175.94 382.31 173.75 387.97 176.37 391.54 C 179.60 395.92 186.65 394.59 189.45 399.46 C 190.89 402.78 187.17 405.85 184.05 405.73 C 180.61 406.21 177.71 404.05 175.30 401.91 C 174.78 402.48 174.27 403.04 173.75 403.62 C 177.59 407.32 183.57 409.23 188.52 406.59 C 192.60 404.64 193.09 398.21 189.46 395.60 C 185.97 393.16 180.99 393.30 178.07 390.00 C 175.71 386.76 179.62 382.81 183.03 383.20 C 186.33 382.72 188.89 385.13 191.61 386.54 C 191.43 381.16 184.36 380.43 180.34 381.54 M 224.70 391.25 C 227.50 395.38 233.45 394.77 237.00 397.94 C 238.69 399.54 238.73 402.37 237.05 404.00 C 234.04 406.56 229.30 406.25 226.31 403.81 C 225.15 403.25 223.62 401.30 222.41 402.98 C 226.00 408.78 236.04 409.77 239.94 403.83 C 240.84 401.34 240.69 398.20 238.81 396.18 C 235.82 393.74 231.76 393.42 228.48 391.51 C 227.25 390.74 225.94 389.60 226.13 387.99 C 225.65 384.80 229.21 383.04 231.91 383.19 C 235.18 382.84 237.66 385.28 240.44 386.53 C 240.14 381.52 233.80 380.61 229.89 381.32 C 225.30 381.72 222.05 387.20 224.70 391.25 M 247.41 381.66 C 247.22 382.01 246.82 382.71 246.62 383.05 C 249.67 383.48 252.77 383.31 255.84 383.37 C 255.85 391.33 255.62 399.30 255.93 407.25 C 256.45 407.24 257.49 407.22 258.01 407.21 C 258.33 399.27 258.09 391.31 258.11 383.36 C 261.09 383.30 264.10 383.50 267.06 383.09 L 267.07 381.90 C 260.59 381.06 253.94 381.49 247.41 381.66 M 197.70 381.99 C 200.18 386.48 203.84 390.18 206.46 394.58 C 207.00 398.76 206.54 403.01 206.70 407.22 C 207.19 407.28 208.17 407.39 208.67 407.45 C 208.89 403.26 208.56 399.06 208.89 394.88 C 211.34 390.07 215.44 386.30 217.83 381.44 C 217.20 381.57 215.93 381.82 215.30 381.94 C 212.61 385.22 210.34 388.83 207.86 392.27 C 204.79 388.69 202.47 384.51 199.18 381.11 L 197.70 381.99 M 275.12 381.62 C 275.24 390.17 275.20 398.72 275.14 407.27 C 280.67 407.29 286.22 407.54 291.75 407.07 C 291.30 406.68 290.41 405.89 289.96 405.50 C 285.76 405.21 281.54 405.46 277.34 405.41 C 277.32 401.99 277.32 398.58 277.32 395.17 C 281.41 395.16 285.51 395.21 289.60 395.08 C 289.40 394.58 288.98 393.58 288.77 393.07 C 284.96 392.71 281.13 392.98 277.31 392.92 C 277.32 389.75 277.32 386.58 277.33 383.42 C 282.13 383.37 286.95 383.65 291.73 383.12 C 291.28 382.74 290.39 381.98 289.94 381.60 C 285.00 381.30 280.05 381.47 275.12 381.62 M 299.88 381.80 C 299.61 390.29 299.64 398.82 299.86 407.32 C 300.34 407.28 301.28 407.20 301.75 407.16 C 301.98 400.06 301.71 392.94 301.86 385.83 C 305.41 390.28 307.67 395.72 311.72 399.75 C 315.27 395.40 317.85 390.36 321.28 385.93 C 321.46 392.89 320.91 399.90 321.53 406.84 L 323.22 407.87 C 323.53 398.92 323.53 389.94 323.23 380.98 C 317.95 384.80 316.10 391.71 311.46 396.16 C 307.73 391.41 305.01 385.94 301.14 381.30 L 299.88 381.80 Z" />
<path fill="#ffffff" opacity="1.00" d=" M 143.33 279.43 C 146.70 279.49 150.12 279.17 153.48 279.67 C 157.29 280.27 158.59 285.46 156.14 288.18 C 153.03 291.99 147.54 289.85 143.34 290.38 C 143.32 286.73 143.32 283.08 143.33 279.43 Z" />
<path fill="#ffffff" opacity="1.00" d=" M 197.19 293.75 C 198.98 289.53 200.59 285.22 202.48 281.04 C 204.28 285.26 205.96 289.53 207.79 293.75 C 204.25 293.77 200.72 293.76 197.19 293.75 Z" />
<path fill="#ffffff" opacity="1.00" d=" M 137.49 331.70 C 141.81 330.22 147.14 331.79 149.38 335.93 C 152.40 341.07 151.47 348.83 146.21 352.18 C 141.95 355.09 135.47 353.81 132.70 349.42 C 128.85 343.71 130.56 334.17 137.49 331.70 Z" />
<path fill="#ffffff" opacity="1.00" d=" M 164.29 331.43 C 167.34 331.48 170.43 331.17 173.45 331.69 C 178.16 333.01 178.06 340.72 173.49 342.14 C 170.46 342.62 167.37 342.34 164.31 342.39 C 164.29 338.73 164.29 335.08 164.29 331.43 Z" />
<path fill="#ffffff" opacity="1.00" d=" M 214.54 331.47 C 218.29 331.61 222.25 330.83 225.87 332.07 C 230.12 334.07 229.07 340.65 224.90 342.07 C 221.50 342.71 218.01 342.29 214.57 342.36 C 214.55 338.73 214.55 335.10 214.54 331.47 Z" />
<path fill="#ffffff" opacity="1.00" d=" M 243.86 345.73 C 245.56 341.44 247.24 337.15 249.07 332.93 C 250.84 337.21 252.55 341.51 254.36 345.78 C 250.86 345.76 247.36 345.77 243.86 345.73 Z" />
<path fill="#ffffff" opacity="1.00" d=" M 65.28 479.87 C 188.76 479.74 312.24 479.81 435.71 479.84 C 433.78 483.82 431.58 487.66 429.23 491.40 C 310.47 491.26 191.71 491.47 72.96 491.30 C 70.36 487.52 67.74 483.75 65.28 479.87 Z" />
</g>
<g id="#60a753ff">
<path fill="#60a753" opacity="1.00" d=" M 259.41 11.55 C 263.17 10.48 267.13 10.83 271.00 10.79 C 292.01 10.82 313.03 10.79 334.05 10.80 C 338.52 10.70 343.22 12.26 345.93 15.99 C 348.86 19.31 347.74 24.03 347.92 28.06 C 348.12 35.12 340.49 39.70 334.05 39.21 C 311.01 39.20 287.98 39.19 264.94 39.21 C 260.70 39.30 256.19 37.97 253.48 34.53 C 247.30 27.46 249.99 14.27 259.41 11.55 M 262.22 20.38 C 257.57 21.75 258.67 30.47 263.88 29.82 C 286.93 29.92 309.97 29.79 333.02 29.88 C 334.49 29.82 336.02 29.93 337.44 29.43 C 341.36 27.25 339.99 19.59 335.05 20.18 C 313.04 20.08 291.03 20.21 269.03 20.12 C 266.76 20.14 264.46 20.01 262.22 20.38 Z" />
<path fill="#60a753" opacity="1.00" d=" M 261.20 50.25 C 263.13 49.94 265.10 49.90 267.05 49.88 C 289.37 49.95 311.68 49.87 334.00 49.92 C 338.45 49.85 343.20 51.32 345.91 55.06 C 348.81 58.35 347.76 63.02 347.92 67.01 C 348.25 73.70 341.21 78.51 335.01 78.26 C 311.99 78.30 288.98 78.22 265.97 78.30 C 261.13 78.62 255.88 77.14 252.98 73.01 C 246.92 65.35 250.93 51.56 261.20 50.25 M 262.30 59.45 C 257.54 60.83 258.67 69.54 263.93 68.99 C 286.30 69.23 308.67 68.97 331.04 69.11 C 333.19 69.05 335.42 69.20 337.50 68.50 C 341.35 66.27 339.96 58.79 335.10 59.26 C 312.41 59.14 289.71 59.30 267.02 59.19 C 265.44 59.21 263.85 59.17 262.30 59.45 Z" />
<path fill="#60a753" opacity="1.00" d=" M 250.17 100.55 C 250.37 93.80 256.04 87.50 262.99 87.60 C 286.97 87.48 310.96 87.57 334.95 87.55 C 339.27 87.39 343.64 89.33 346.16 92.89 C 348.71 96.00 347.77 100.25 347.94 103.95 C 348.43 108.66 345.00 113.04 340.72 114.62 C 337.84 115.14 334.90 114.86 331.99 114.91 C 308.34 114.88 284.69 114.89 261.03 114.90 C 255.75 115.17 251.61 110.24 250.75 105.38 C 250.56 103.77 250.36 102.16 250.17 100.55 M 263.04 106.81 L 261.60 107.14 C 266.02 107.82 270.50 107.54 274.96 107.56 C 291.65 107.56 308.34 107.59 325.03 107.57 C 329.13 107.55 333.27 107.76 337.35 107.18 L 335.93 106.80 C 339.41 105.78 340.93 101.19 338.66 98.35 C 337.41 96.48 334.94 96.72 332.99 96.62 C 312.32 96.66 291.65 96.65 270.99 96.63 C 268.03 96.67 265.02 96.40 262.11 96.98 C 257.83 98.79 258.67 105.64 263.04 106.81 Z" />
</g>
<g id="#a9cea2ff">
<path fill="#a9cea2" opacity="1.00" d=" M 181.31 33.52 C 200.51 32.93 219.76 33.44 238.98 33.27 C 244.10 32.79 250.00 36.44 249.91 42.00 C 249.92 45.35 250.54 49.34 247.98 51.98 C 245.82 54.69 242.27 55.63 238.93 55.52 C 220.62 55.48 202.31 55.51 184.01 55.50 C 179.39 55.84 174.88 52.85 173.52 48.40 C 171.19 42.49 174.70 34.48 181.31 33.52 M 182.49 40.67 C 178.71 41.78 179.61 48.97 183.96 48.27 C 201.28 48.45 218.61 48.21 235.94 48.37 C 237.90 48.26 240.00 48.56 241.85 47.74 C 244.04 46.25 243.92 42.63 241.89 41.03 C 239.71 40.11 237.25 40.51 234.95 40.40 C 217.47 40.67 199.95 40.09 182.49 40.67 Z" />
<path fill="#a9cea2" opacity="1.00" d=" M 180.33 64.62 C 182.85 64.10 185.43 64.19 187.99 64.17 C 205.35 64.29 222.72 64.11 240.08 64.25 C 244.06 64.15 248.10 66.57 249.54 70.35 C 250.18 73.42 250.10 76.65 249.66 79.75 C 248.54 83.89 244.18 86.51 240.02 86.42 C 222.35 86.53 204.68 86.36 187.01 86.49 C 183.09 86.58 178.52 86.47 175.80 83.17 C 170.45 77.61 172.64 66.73 180.33 64.62 M 182.41 71.64 C 179.07 72.60 179.32 78.91 183.06 79.08 C 185.35 79.40 187.67 79.31 189.97 79.31 C 206.66 79.13 223.37 79.48 240.06 79.15 C 243.92 79.22 244.66 73.08 241.33 71.69 C 237.93 71.06 234.44 71.45 231.00 71.38 C 214.81 71.58 198.58 71.03 182.41 71.64 Z" />
<path fill="#a9cea2" opacity="1.00" d=" M 176.42 96.48 C 178.94 94.03 182.63 93.72 185.97 93.71 C 203.64 93.79 221.32 93.71 238.99 93.75 C 243.76 93.44 248.14 96.32 250.17 100.55 C 250.36 102.16 250.56 103.77 250.75 105.38 C 250.21 109.97 247.36 115.65 241.99 115.41 C 222.66 115.46 203.32 115.34 183.99 115.46 C 181.58 115.38 178.83 115.69 176.92 113.91 C 171.71 109.72 171.47 100.97 176.42 96.48 M 182.28 101.38 C 179.84 102.08 179.72 105.43 180.66 107.36 C 181.51 108.91 183.44 108.70 184.93 108.82 C 200.97 108.82 217.01 108.77 233.05 108.83 C 235.91 108.79 238.83 109.06 241.65 108.45 C 244.05 107.07 244.05 102.93 241.66 101.49 C 240.12 101.10 238.52 101.12 236.95 101.08 C 221.97 101.15 207.00 101.11 192.02 101.10 C 188.78 101.14 185.50 100.85 182.28 101.38 Z" />
<path fill="#a9cea2" opacity="1.00" d=" M 108.33 225.43 C 112.38 223.92 116.79 224.72 121.01 224.56 C 209.66 224.55 298.31 224.60 386.96 224.54 C 391.38 224.38 395.25 226.82 398.85 229.06 C 412.42 237.84 420.68 253.83 420.67 269.91 C 420.69 315.93 420.67 361.94 420.67 407.96 C 420.79 423.10 413.66 438.27 401.51 447.41 C 393.96 453.18 384.52 456.45 375.00 456.38 C 291.67 456.36 208.34 456.37 125.02 456.37 C 113.42 456.37 102.05 451.34 93.99 443.06 C 84.55 433.62 79.57 420.21 79.70 406.94 C 79.73 361.30 79.68 315.65 79.72 270.02 C 79.76 251.35 90.92 232.77 108.33 225.43 M 118.40 237.60 C 104.14 241.15 94.54 255.62 94.52 269.96 C 94.46 315.62 94.52 361.29 94.49 406.96 C 94.35 416.38 97.81 425.92 104.48 432.65 C 110.06 438.37 117.97 441.82 126.00 441.60 C 209.34 441.55 292.68 441.63 376.01 441.56 C 392.75 441.31 405.89 425.18 405.82 409.03 C 405.89 364.67 405.81 320.31 405.86 275.95 C 405.84 271.26 406.07 266.49 404.90 261.91 C 402.56 251.90 395.54 242.83 385.92 238.91 C 379.36 236.03 372.05 236.78 365.09 236.71 C 285.74 236.70 206.39 236.73 127.03 236.69 C 124.14 236.72 121.22 236.93 118.40 237.60 Z" />
<path fill="#a9cea2" opacity="1.00" d=" M 117.23 255.30 C 121.03 254.16 125.09 254.80 129.01 254.67 C 210.33 254.66 291.65 254.72 372.98 254.64 C 376.64 254.81 381.18 253.87 383.91 256.99 C 385.54 258.54 385.65 260.88 385.67 262.98 C 385.62 314.34 385.67 365.70 385.65 417.05 C 385.95 420.16 384.00 423.30 380.96 424.17 C 377.37 424.79 373.70 424.45 370.07 424.50 C 287.03 424.49 203.99 424.49 120.94 424.50 C 116.68 425.03 112.77 421.35 113.15 417.06 C 113.08 365.70 113.15 314.33 113.12 262.97 C 112.87 259.87 114.21 256.54 117.23 255.30 M 127.10 268.45 C 126.73 279.29 127.02 290.15 126.93 301.00 C 127.05 337.56 126.76 374.13 127.06 410.69 C 208.63 410.63 290.20 410.66 371.77 410.67 C 371.76 363.27 371.83 315.86 371.73 268.45 C 290.19 268.53 208.65 268.53 127.10 268.45 Z" />
<path fill="#a9cea2" opacity="1.00" d=" M 50.57 472.52 C 51.63 469.96 54.57 469.41 57.04 469.46 C 185.70 469.47 314.37 469.48 443.03 469.45 C 445.24 469.51 447.97 469.66 449.15 471.89 C 450.87 474.47 449.18 477.48 447.91 479.85 C 444.01 486.53 440.27 493.30 436.42 500.00 L 66.15 500.00 C 59.86 494.53 56.46 486.76 52.23 479.78 C 51.11 477.59 49.23 475.03 50.57 472.52 M 65.28 479.87 C 67.74 483.75 70.36 487.52 72.96 491.30 C 191.71 491.47 310.47 491.26 429.23 491.40 C 431.58 487.66 433.78 483.82 435.71 479.84 C 312.24 479.81 188.76 479.74 65.28 479.87 Z" />
</g>
<g id="#356a33ff">
<path fill="#356a33" opacity="1.00" d=" M 263.04 106.81 C 287.34 106.59 311.64 106.61 335.93 106.80 L 337.35 107.18 C 333.27 107.76 329.13 107.55 325.03 107.57 C 308.34 107.59 291.65 107.56 274.96 107.56 C 270.50 107.54 266.02 107.82 261.60 107.14 L 263.04 106.81 Z" />
<path fill="#356a33" opacity="1.00" d=" M 202.25 276.63 C 205.22 280.19 206.20 284.86 208.11 289.00 C 209.96 293.94 212.57 298.65 213.59 303.87 C 210.22 302.76 210.10 298.79 208.70 296.06 C 204.81 295.86 200.88 295.63 196.99 296.02 C 194.30 297.82 195.29 303.02 191.44 303.80 C 194.35 294.50 198.48 285.61 202.25 276.63 M 197.19 293.75 C 200.72 293.76 204.25 293.77 207.79 293.75 C 205.96 289.53 204.28 285.26 202.48 281.04 C 200.59 285.22 198.98 289.53 197.19 293.75 Z" />
<path fill="#356a33" opacity="1.00" d=" M 141.11 277.62 C 145.06 277.46 149.02 277.35 152.96 277.56 C 156.77 277.44 160.11 281.11 159.57 284.91 C 159.77 287.60 157.57 289.27 155.99 291.08 C 159.57 294.20 158.48 299.29 160.65 303.17 C 158.66 304.01 157.18 301.79 157.03 300.05 C 156.42 297.54 157.33 293.75 154.15 292.75 C 150.66 291.76 146.91 292.47 143.32 292.28 C 143.32 296.12 143.39 299.97 143.20 303.81 C 142.73 303.54 141.79 303.01 141.32 302.74 C 140.93 294.38 141.38 285.99 141.11 277.62 M 143.33 279.43 C 143.32 283.08 143.32 286.73 143.34 290.38 C 147.54 289.85 153.03 291.99 156.14 288.18 C 158.59 285.46 157.29 280.27 153.48 279.67 C 150.12 279.17 146.70 279.49 143.33 279.43 Z" />
<path fill="#356a33" opacity="1.00" d=" M 169.57 277.52 C 174.62 277.65 179.74 277.07 184.74 277.79 L 185.84 279.21 C 181.12 279.59 176.40 279.38 171.68 279.44 C 171.68 282.58 171.68 285.73 171.66 288.87 C 175.55 288.97 179.46 288.77 183.35 289.03 C 183.36 289.54 183.36 290.54 183.37 291.04 C 179.48 291.32 175.58 291.13 171.69 291.17 C 171.68 294.58 171.68 297.99 171.68 301.40 C 175.92 301.53 180.20 301.09 184.41 301.60 C 184.81 301.97 185.60 302.71 186.00 303.08 C 180.53 303.54 175.04 303.26 169.57 303.32 C 169.51 294.72 169.50 286.12 169.57 277.52 Z" />
<path fill="#356a33" opacity="1.00" d=" M 221.80 277.06 C 222.26 277.33 223.19 277.87 223.66 278.15 C 223.97 285.88 223.68 293.64 223.77 301.38 C 227.82 301.46 231.88 301.23 235.93 301.50 C 236.38 301.89 237.29 302.69 237.74 303.08 C 232.40 303.54 227.03 303.26 221.68 303.32 C 221.73 294.57 221.53 285.81 221.80 277.06 Z" />
<path fill="#356a33" opacity="1.00" d=" M 255.30 279.06 C 255.76 278.70 256.68 277.97 257.14 277.60 C 263.06 277.39 269.01 277.37 274.93 277.61 C 275.38 277.98 276.28 278.72 276.73 279.09 C 273.57 279.38 270.39 279.34 267.22 279.32 C 267.13 287.30 267.43 295.28 267.09 303.25 C 266.57 303.24 265.53 303.23 265.01 303.22 C 264.69 295.26 264.98 287.29 264.89 279.32 C 261.69 279.34 258.48 279.39 255.30 279.06 Z" />
<path fill="#356a33" opacity="1.00" d=" M 284.46 278.16 L 284.89 277.28 L 286.26 277.72 C 286.51 286.27 286.54 294.87 286.24 303.43 C 285.77 303.31 284.85 303.07 284.39 302.95 C 284.23 294.70 284.09 286.40 284.46 278.16 Z" />
<path fill="#356a33" opacity="1.00" d=" M 296.86 285.00 C 296.93 282.21 296.46 279.26 297.80 276.69 C 302.08 281.47 304.70 287.46 308.95 292.24 C 312.92 287.21 315.61 281.20 320.22 276.68 C 321.14 285.28 320.64 294.01 320.54 302.64 C 320.09 302.95 319.19 303.57 318.73 303.88 C 318.28 296.54 318.69 289.19 318.48 281.86 C 315.11 286.46 312.21 291.40 308.90 296.04 C 305.23 291.62 302.45 286.57 299.21 281.85 C 298.96 288.96 299.36 296.09 299.01 303.20 C 298.51 303.21 297.51 303.23 297.01 303.24 C 296.68 297.16 296.99 291.07 296.86 285.00 Z" />
<path fill="#356a33" opacity="1.00" d=" M 331.11 277.62 C 336.66 277.47 342.23 277.20 347.76 277.85 C 347.29 278.22 346.36 278.94 345.89 279.31 C 341.71 279.63 337.51 279.36 333.33 279.42 C 333.32 282.57 333.32 285.73 333.29 288.90 C 337.24 288.97 341.20 288.76 345.15 289.04 C 345.16 289.54 345.19 290.53 345.20 291.02 C 341.25 291.33 337.28 291.13 333.32 291.16 C 333.32 294.57 333.32 297.99 333.34 301.41 C 337.55 301.46 341.76 301.22 345.96 301.49 C 346.41 301.89 347.30 302.68 347.74 303.07 C 342.22 303.54 336.67 303.29 331.14 303.27 C 331.20 294.72 331.24 286.17 331.11 277.62 Z" />
<path fill="#356a33" opacity="1.00" d=" M 136.46 329.81 C 141.54 328.07 147.83 329.47 150.90 334.10 C 154.33 339.21 154.20 346.55 150.40 351.43 C 146.07 356.97 136.60 357.32 131.95 352.01 C 125.97 345.57 127.74 332.94 136.46 329.81 M 137.49 331.70 C 130.56 334.17 128.85 343.71 132.70 349.42 C 135.47 353.81 141.95 355.09 146.21 352.18 C 151.47 348.83 152.40 341.07 149.38 335.93 C 147.14 331.79 141.81 330.22 137.49 331.70 Z" />
<path fill="#356a33" opacity="1.00" d=" M 337.74 334.95 C 340.65 330.15 346.89 328.26 352.20 329.43 C 354.20 329.88 357.01 330.51 356.61 333.21 C 352.20 331.20 346.56 329.97 342.44 333.27 C 336.64 337.30 336.36 346.80 341.90 351.17 C 345.54 354.53 350.98 354.12 355.22 352.21 C 355.23 349.63 355.23 347.06 355.24 344.48 C 352.57 344.44 349.90 344.42 347.26 344.04 C 349.80 341.18 353.98 342.81 357.32 342.46 C 357.33 346.06 357.32 349.67 357.36 353.28 C 352.63 356.23 346.25 356.80 341.47 353.64 C 335.33 349.86 333.95 340.85 337.74 334.95 Z" />
<path fill="#356a33" opacity="1.00" d=" M 162.12 329.62 C 166.36 329.56 170.71 329.04 174.89 329.95 C 181.10 332.20 180.37 342.51 174.07 344.14 C 170.82 344.52 167.54 344.28 164.28 344.31 C 164.26 347.97 164.44 351.64 164.16 355.30 C 163.68 355.26 162.73 355.18 162.26 355.14 C 162.02 346.64 162.32 338.12 162.12 329.62 M 164.29 331.43 C 164.29 335.08 164.29 338.73 164.31 342.39 C 167.37 342.34 170.46 342.62 173.49 342.14 C 178.06 340.72 178.16 333.01 173.45 331.69 C 170.43 331.17 167.34 331.48 164.29 331.43 Z" />
<path fill="#356a33" opacity="1.00" d=" M 187.76 329.56 C 192.81 329.61 197.92 329.10 202.93 329.78 L 204.13 331.18 C 199.47 331.60 194.78 331.40 190.10 331.41 C 190.08 334.58 190.08 337.75 190.08 340.92 C 193.73 340.96 197.38 340.74 201.02 341.03 C 201.36 341.52 202.03 342.50 202.37 342.99 C 198.27 343.27 194.16 343.14 190.06 343.19 C 190.08 346.60 190.08 350.01 190.12 353.43 C 194.38 353.52 198.69 353.04 202.91 353.67 L 204.09 355.14 C 198.65 355.48 193.20 355.30 187.76 355.30 C 187.71 346.72 187.70 338.14 187.76 329.56 Z" />
<path fill="#356a33" opacity="1.00" d=" M 212.44 329.52 C 216.62 329.53 220.80 329.29 224.97 329.63 C 228.91 329.87 231.60 334.25 230.67 337.96 C 230.44 340.20 228.50 341.59 227.03 343.06 C 229.85 345.25 230.35 348.81 230.38 352.15 C 231.07 353.21 231.75 354.29 232.42 355.38 C 225.38 355.96 230.46 345.58 224.65 344.48 C 221.30 344.05 217.91 344.33 214.55 344.31 C 214.55 348.16 214.65 352.02 214.34 355.87 C 211.67 355.51 212.63 352.76 212.37 351.03 C 212.42 343.86 212.35 336.69 212.44 329.52 M 214.54 331.47 C 214.55 335.10 214.55 338.73 214.57 342.36 C 218.01 342.29 221.50 342.71 224.90 342.07 C 229.07 340.65 230.12 334.07 225.87 332.07 C 222.25 330.83 218.29 331.61 214.54 331.47 Z" />
<path fill="#356a33" opacity="1.00" d=" M 243.13 342.26 C 245.08 337.67 246.66 332.90 249.08 328.52 C 251.45 332.21 252.77 336.41 254.47 340.42 C 256.47 345.46 258.75 350.40 260.44 355.56 C 256.61 355.35 256.79 350.55 255.22 347.91 C 251.13 347.84 247.03 347.84 242.94 347.92 C 241.52 350.61 241.45 354.86 237.99 355.73 C 239.22 351.07 241.36 346.73 243.13 342.26 M 243.86 345.73 C 247.36 345.77 250.86 345.76 254.36 345.78 C 252.55 341.51 250.84 337.21 249.07 332.93 C 247.24 337.15 245.56 341.44 243.86 345.73 Z" />
<path fill="#356a33" opacity="1.00" d=" M 265.23 331.10 C 265.68 330.72 266.60 329.98 267.05 329.61 C 273.57 329.40 280.13 329.25 286.63 329.86 C 284.17 332.49 280.14 330.93 276.95 331.34 C 276.85 339.41 276.91 347.49 276.92 355.56 C 276.41 355.41 275.39 355.10 274.88 354.94 C 274.52 347.08 274.84 339.20 274.74 331.33 C 271.57 331.34 268.39 331.38 265.23 331.10 Z" />
<path fill="#356a33" opacity="1.00" d=" M 294.15 329.81 C 294.66 329.77 295.67 329.70 296.18 329.66 C 296.36 338.07 296.44 346.52 296.14 354.93 C 295.64 355.09 294.63 355.42 294.13 355.58 C 294.18 346.99 294.08 338.40 294.15 329.81 Z" />
<path fill="#356a33" opacity="1.00" d=" M 306.86 329.64 L 308.05 329.44 C 314.05 336.33 318.93 344.18 324.71 351.28 C 324.96 344.14 324.51 336.98 324.92 329.84 C 327.51 328.06 326.66 332.64 326.83 333.98 C 326.61 340.95 327.11 347.95 326.61 354.89 C 325.77 357.02 324.47 354.02 323.62 353.47 C 318.50 346.43 313.01 339.65 308.33 332.30 C 308.74 339.79 309.01 347.33 308.53 354.82 L 306.87 355.82 C 306.66 347.10 306.61 338.36 306.86 329.64 Z" />
<path fill="#356a33" opacity="1.00" d=" M 180.34 381.54 C 184.36 380.43 191.43 381.16 191.61 386.54 C 188.89 385.13 186.33 382.72 183.03 383.20 C 179.62 382.81 175.71 386.76 178.07 390.00 C 180.99 393.30 185.97 393.16 189.46 395.60 C 193.09 398.21 192.60 404.64 188.52 406.59 C 183.57 409.23 177.59 407.32 173.75 403.62 C 174.27 403.04 174.78 402.48 175.30 401.91 C 177.71 404.05 180.61 406.21 184.05 405.73 C 187.17 405.85 190.89 402.78 189.45 399.46 C 186.65 394.59 179.60 395.92 176.37 391.54 C 173.75 387.97 175.94 382.31 180.34 381.54 Z" />
<path fill="#356a33" opacity="1.00" d=" M 224.70 391.25 C 222.05 387.20 225.30 381.72 229.89 381.32 C 233.80 380.61 240.14 381.52 240.44 386.53 C 237.66 385.28 235.18 382.84 231.91 383.19 C 229.21 383.04 225.65 384.80 226.13 387.99 C 225.94 389.60 227.25 390.74 228.48 391.51 C 231.76 393.42 235.82 393.74 238.81 396.18 C 240.69 398.20 240.84 401.34 239.94 403.83 C 236.04 409.77 226.00 408.78 222.41 402.98 C 223.62 401.30 225.15 403.25 226.31 403.81 C 229.30 406.25 234.04 406.56 237.05 404.00 C 238.73 402.37 238.69 399.54 237.00 397.94 C 233.45 394.77 227.50 395.38 224.70 391.25 Z" />
<path fill="#356a33" opacity="1.00" d=" M 247.41 381.66 C 253.94 381.49 260.59 381.06 267.07 381.90 L 267.06 383.09 C 264.10 383.50 261.09 383.30 258.11 383.36 C 258.09 391.31 258.33 399.27 258.01 407.21 C 257.49 407.22 256.45 407.24 255.93 407.25 C 255.62 399.30 255.85 391.33 255.84 383.37 C 252.77 383.31 249.67 383.48 246.62 383.05 C 246.82 382.71 247.22 382.01 247.41 381.66 Z" />
<path fill="#356a33" opacity="1.00" d=" M 197.70 381.99 L 199.18 381.11 C 202.47 384.51 204.79 388.69 207.86 392.27 C 210.34 388.83 212.61 385.22 215.30 381.94 C 215.93 381.82 217.20 381.57 217.83 381.44 C 215.44 386.30 211.34 390.07 208.89 394.88 C 208.56 399.06 208.89 403.26 208.67 407.45 C 208.17 407.39 207.19 407.28 206.70 407.22 C 206.54 403.01 207.00 398.76 206.46 394.58 C 203.84 390.18 200.18 386.48 197.70 381.99 Z" />
<path fill="#356a33" opacity="1.00" d=" M 275.12 381.62 C 280.05 381.47 285.00 381.30 289.94 381.60 C 290.39 381.98 291.28 382.74 291.73 383.12 C 286.95 383.65 282.13 383.37 277.33 383.42 C 277.32 386.58 277.32 389.75 277.31 392.92 C 281.13 392.98 284.96 392.71 288.77 393.07 C 288.98 393.58 289.40 394.58 289.60 395.08 C 285.51 395.21 281.41 395.16 277.32 395.17 C 277.32 398.58 277.32 401.99 277.34 405.41 C 281.54 405.46 285.76 405.21 289.96 405.50 C 290.41 405.89 291.30 406.68 291.75 407.07 C 286.22 407.54 280.67 407.29 275.14 407.27 C 275.20 398.72 275.24 390.17 275.12 381.62 Z" />
<path fill="#356a33" opacity="1.00" d=" M 299.88 381.80 L 301.14 381.30 C 305.01 385.94 307.73 391.41 311.46 396.16 C 316.10 391.71 317.95 384.80 323.23 380.98 C 323.53 389.94 323.53 398.92 323.22 407.87 L 321.53 406.84 C 320.91 399.90 321.46 392.89 321.28 385.93 C 317.85 390.36 315.27 395.40 311.72 399.75 C 307.67 395.72 305.41 390.28 301.86 385.83 C 301.71 392.94 301.98 400.06 301.75 407.16 C 301.28 407.20 300.34 407.28 299.86 407.32 C 299.64 398.82 299.61 390.29 299.88 381.80 Z" />
</g>
<g id="#000000ff">
<path fill="#000000" opacity="1.00" d=" M 283.31 142.04 C 283.37 136.28 292.01 134.40 295.03 138.99 C 303.10 150.82 310.56 163.06 318.62 174.89 C 326.91 163.02 334.64 150.75 342.91 138.86 C 345.95 134.34 353.69 136.58 354.18 141.89 C 354.36 162.28 354.18 182.67 354.26 203.06 C 354.41 205.12 353.73 207.08 353.02 208.98 C 349.28 212.00 341.99 211.32 341.35 205.73 C 341.10 190.93 341.37 176.10 341.23 161.29 C 334.82 170.26 329.19 179.78 322.88 188.81 C 320.29 192.20 314.95 191.57 312.82 188.01 C 306.89 178.95 301.32 169.64 295.35 160.60 C 295.03 175.07 295.32 189.54 295.21 204.01 C 295.32 207.05 293.54 210.68 290.11 210.71 C 286.65 211.53 283.09 208.51 283.28 204.99 C 283.25 184.01 283.20 163.02 283.31 142.04 Z" />
<path fill="#000000" opacity="1.00" d=" M 376.80 139.92 C 386.48 134.53 398.50 134.08 408.76 138.09 C 412.79 139.84 417.26 141.95 419.42 145.99 C 421.42 150.41 416.71 155.93 412.13 153.92 C 406.73 150.36 400.59 147.42 393.99 147.34 C 389.63 147.42 384.72 148.32 381.83 151.91 C 378.61 155.63 380.22 162.11 384.72 164.04 C 394.47 168.92 406.68 167.46 415.45 174.59 C 421.55 179.35 422.38 188.05 420.88 195.13 C 418.55 204.17 409.66 209.79 400.90 211.31 C 389.62 212.92 376.67 211.17 368.52 202.47 C 365.23 199.44 366.64 193.29 371.03 192.21 C 374.32 190.79 377.03 193.98 379.58 195.57 C 385.06 199.72 392.26 200.46 398.89 199.54 C 402.62 198.74 406.34 196.84 408.39 193.51 C 409.96 189.54 408.24 184.73 404.45 182.72 C 395.31 177.58 383.55 179.65 375.10 172.88 C 365.21 165.47 365.71 149.28 374.82 141.41 C 375.53 141.70 376.44 143.16 377.22 142.23 C 378.01 141.55 377.01 140.63 376.80 139.92 Z" />
<path fill="#000000" opacity="1.00" d=" M 81.94 143.94 C 81.70 140.39 84.07 136.34 88.01 136.59 C 98.99 136.51 109.99 136.44 120.97 136.63 C 134.20 137.52 143.31 152.63 139.33 164.94 C 137.98 170.27 134.10 174.32 130.08 177.82 C 132.20 179.59 134.34 181.48 135.48 184.06 C 137.92 188.56 136.94 193.87 138.50 198.62 C 140.51 201.05 144.19 203.13 143.23 206.86 C 141.83 211.99 134.76 211.78 131.26 208.95 C 125.60 204.85 125.28 197.28 124.82 190.95 C 124.83 186.93 120.82 183.94 117.05 183.75 C 109.79 183.46 102.51 183.74 95.24 183.62 C 95.11 190.41 95.25 197.21 95.18 204.01 C 95.09 206.32 94.47 209.11 92.21 210.26 C 88.92 211.54 84.66 210.44 82.76 207.37 C 81.86 205.37 81.89 203.13 81.87 200.99 C 81.95 181.97 81.81 162.95 81.94 143.94 M 95.20 148.39 C 95.19 156.54 95.20 164.69 95.19 172.84 C 103.17 172.78 111.15 172.93 119.13 172.78 C 121.20 172.83 122.46 170.85 123.70 169.48 C 126.90 164.73 127.87 158.04 124.84 152.97 C 123.38 150.60 121.02 148.26 118.02 148.41 C 110.41 148.35 102.81 148.43 95.20 148.39 Z" />
<path fill="#000000" opacity="1.00" d=" M 151.34 139.37 C 152.54 136.90 155.60 136.43 158.07 136.53 C 173.36 136.55 188.66 136.50 203.96 136.55 C 207.17 136.22 210.78 138.52 210.55 142.04 C 211.14 145.36 208.34 148.43 205.02 148.33 C 199.11 148.51 193.20 148.34 187.29 148.39 C 187.28 166.94 187.29 185.50 187.28 204.05 C 187.40 205.80 186.64 207.39 186.01 208.97 C 183.47 210.42 180.39 211.48 177.52 210.27 C 175.10 209.25 173.52 206.64 173.75 204.02 C 173.75 185.48 173.75 166.93 173.75 148.39 C 168.20 148.36 162.64 148.46 157.09 148.38 C 155.26 148.44 153.59 147.66 151.94 147.00 C 150.89 144.65 149.84 141.76 151.34 139.37 Z" />
<path fill="#000000" opacity="1.00" d=" M 222.31 141.98 C 222.28 138.53 225.82 136.17 229.06 136.54 C 241.05 136.57 253.05 136.42 265.03 136.62 C 270.38 136.40 272.67 144.53 268.30 147.29 C 266.79 148.50 264.78 148.33 262.97 148.41 C 253.73 148.39 244.48 148.40 235.24 148.39 C 235.24 154.52 235.25 160.66 235.23 166.80 C 243.16 166.81 251.08 166.76 259.01 166.80 C 262.44 166.59 265.97 169.31 265.76 172.94 C 266.03 176.11 263.09 178.90 259.97 178.72 C 251.73 178.80 243.49 178.72 235.25 178.74 C 235.23 185.43 235.25 192.11 235.23 198.79 C 244.84 198.80 254.45 198.75 264.06 198.80 C 267.72 198.69 271.29 202.14 270.48 205.92 C 270.25 209.03 266.98 211.04 264.04 210.74 C 252.04 210.73 240.04 210.79 228.04 210.72 C 224.56 210.86 221.80 207.39 222.25 204.03 C 222.30 183.35 222.17 162.66 222.31 141.98 Z" />
</g>
</svg>
