<?xml version="1.0" encoding="UTF-8" ?>
<!DOCTYPE svg PUBLIC "-//W3C//DTD SVG 1.1//EN" "http://www.w3.org/Graphics/SVG/1.1/DTD/svg11.dtd">
<svg width="500pt" height="500pt" viewBox="0 0 500 500" version="1.1" xmlns="http://www.w3.org/2000/svg">
<g id="#ffffffff">
<path fill="#ffffff" opacity="1.00" d=" M 0.00 0.00 L 500.00 0.00 L 500.00 500.00 L 436.42 500.00 C 440.52 492.87 444.52 485.67 448.61 478.54 C 449.94 476.38 450.60 473.37 448.73 471.32 C 447.43 469.47 445.03 469.52 443.02 469.45 C 314.03 469.51 185.03 469.42 56.04 469.49 C 52.03 468.88 48.46 473.66 50.82 477.17 C 55.55 485.00 59.16 493.84 66.16 500.00 L 0.00 500.00 L 0.00 0.00 M 259.41 11.55 C 250.00 14.27 247.30 27.46 253.48 34.53 C 256.20 37.96 260.70 39.33 264.95 39.22 C 288.29 39.17 311.64 39.23 334.98 39.19 C 341.52 39.44 348.77 34.11 347.93 27.05 C 347.71 23.57 348.72 19.56 346.37 16.59 C 343.72 12.50 338.77 10.64 334.05 10.79 C 311.02 10.80 288.00 10.80 264.98 10.79 C 263.10 10.82 261.21 11.01 259.41 11.55 M 181.31 33.49 C 177.10 34.13 173.86 37.82 173.10 41.91 C 171.49 48.14 176.23 55.65 183.02 55.47 C 201.99 55.53 220.97 55.49 239.94 55.49 C 244.12 55.70 248.37 53.00 249.68 48.99 C 250.01 45.81 250.16 42.53 249.56 39.38 C 247.85 35.26 243.34 32.90 238.97 33.27 C 219.76 33.43 200.51 32.97 181.31 33.49 M 261.20 50.24 C 252.10 51.41 247.70 62.62 251.45 70.42 C 253.54 75.29 258.72 78.46 264.00 78.27 C 287.67 78.27 311.34 78.26 335.00 78.27 C 340.59 78.45 346.63 74.75 347.81 69.10 C 347.66 64.24 349.25 58.40 345.45 54.51 C 342.71 51.12 338.21 49.87 334.00 49.91 C 311.33 49.88 288.67 49.93 266.00 49.89 C 264.39 49.91 262.78 49.98 261.20 50.24 M 180.33 64.60 C 174.08 66.37 171.10 74.29 173.81 80.00 C 175.35 84.08 179.62 86.72 183.95 86.45 C 202.64 86.43 221.33 86.47 240.01 86.43 C 243.25 86.49 246.48 85.00 248.38 82.36 C 250.57 79.74 249.81 76.10 249.91 72.96 C 250.09 67.88 244.85 64.06 240.08 64.24 C 222.05 64.14 204.03 64.26 186.01 64.18 C 184.11 64.22 182.19 64.19 180.33 64.60 M 250.17 100.54 C 248.09 96.35 243.78 93.40 238.99 93.74 C 220.67 93.76 202.34 93.71 184.02 93.76 C 179.52 93.61 175.04 96.37 173.62 100.73 C 171.39 106.09 173.98 113.91 179.98 115.32 C 200.64 115.55 221.32 115.33 241.99 115.43 C 247.37 115.69 250.18 109.95 250.76 105.37 C 251.60 110.23 255.77 115.19 261.04 114.91 C 286.36 114.89 311.67 114.86 336.99 114.92 C 342.93 115.67 348.57 109.82 347.93 103.94 C 347.67 100.44 348.75 96.45 346.50 93.40 C 344.04 89.55 339.48 87.34 334.94 87.55 C 311.62 87.53 288.30 87.57 264.98 87.53 C 257.38 86.60 250.32 92.95 250.17 100.54 M 283.30 142.04 C 283.17 162.34 283.31 182.66 283.24 202.96 C 283.22 205.10 283.16 207.57 284.94 209.11 C 288.00 212.46 294.67 210.70 295.03 205.91 C 295.57 190.87 294.88 175.78 295.37 160.72 C 301.60 169.88 307.11 179.52 313.33 188.69 C 315.69 191.75 320.48 191.88 322.90 188.81 C 329.19 179.82 334.72 170.27 341.22 161.42 C 341.38 176.19 341.10 190.97 341.35 205.73 C 341.96 211.29 349.32 212.08 353.00 208.95 C 353.57 207.36 354.34 205.78 354.25 204.04 C 354.25 183.71 354.25 163.38 354.24 143.05 C 354.48 139.32 350.88 135.88 347.14 136.45 C 344.64 136.57 342.89 138.59 341.66 140.56 C 334.59 151.26 327.36 161.85 320.34 172.58 C 319.74 173.30 319.44 174.38 318.52 174.78 C 310.54 162.96 303.05 150.79 295.03 139.00 C 292.02 134.39 283.36 136.28 283.30 142.04 M 376.65 139.97 C 376.94 140.64 378.08 141.53 377.22 142.23 C 376.43 143.21 375.59 141.68 374.95 141.32 C 365.71 149.13 365.17 165.45 375.11 172.88 C 383.69 179.80 395.78 177.47 404.94 183.04 C 409.19 185.50 410.63 192.39 406.62 195.68 C 401.75 200.38 394.38 200.32 388.13 199.39 C 383.30 198.53 379.43 195.44 375.52 192.73 C 370.60 189.32 364.14 196.38 367.56 201.16 C 371.55 206.61 378.15 209.61 384.60 211.04 C 393.36 212.45 402.92 212.38 410.77 207.73 C 416.83 204.39 421.37 197.97 421.48 190.93 C 421.82 184.99 420.43 178.37 415.45 174.59 C 406.68 167.46 394.47 168.92 384.73 164.04 C 380.44 162.19 378.74 156.23 381.44 152.42 C 383.57 149.34 387.31 147.99 390.90 147.55 C 398.52 146.49 405.93 149.78 412.12 153.94 C 416.72 155.92 421.42 150.42 419.42 145.99 C 417.68 142.61 414.12 140.63 410.84 139.00 C 400.12 133.98 387.03 134.20 376.65 139.97 M 81.93 143.94 C 81.88 164.00 81.83 184.08 81.96 204.15 C 81.77 209.47 88.57 212.40 92.80 209.92 C 94.59 208.54 95.10 206.13 95.19 203.99 C 95.30 197.18 95.00 190.36 95.33 183.55 C 102.57 183.82 109.82 183.43 117.05 183.75 C 120.83 183.94 124.84 186.94 124.82 190.96 C 125.30 196.45 125.36 202.55 129.15 206.97 C 131.84 210.40 137.04 212.14 141.02 209.98 C 144.23 208.04 143.94 203.16 140.96 201.14 C 137.46 199.02 137.71 194.67 137.31 191.11 C 137.09 185.90 134.47 180.84 130.10 177.93 C 133.70 174.44 137.59 170.88 139.03 165.88 C 143.73 153.42 134.56 137.54 120.96 136.63 C 109.99 136.44 99.00 136.51 88.02 136.59 C 84.07 136.33 81.69 140.39 81.93 143.94 M 151.97 146.96 C 153.60 147.70 155.25 148.50 157.10 148.38 C 162.65 148.44 168.20 148.37 173.75 148.39 C 173.76 166.93 173.75 185.47 173.75 204.01 C 173.37 207.50 176.42 210.84 179.93 210.76 C 182.13 211.05 184.10 209.94 185.96 208.97 C 186.67 207.40 187.47 205.82 187.29 204.04 C 187.28 185.49 187.28 166.94 187.29 148.39 C 193.20 148.35 199.11 148.50 205.01 148.33 C 208.33 148.44 211.14 145.36 210.55 142.04 C 210.78 138.52 207.17 136.22 203.96 136.55 C 187.97 136.56 171.98 136.42 156.00 136.62 C 150.69 136.61 149.25 143.24 151.97 146.96 M 222.26 142.93 C 222.26 163.62 222.22 184.31 222.28 205.00 C 222.18 208.05 225.00 210.83 228.04 210.72 C 240.04 210.78 252.04 210.73 264.03 210.74 C 266.98 211.04 270.26 209.03 270.48 205.91 C 271.30 202.13 267.71 198.68 264.05 198.80 C 254.44 198.76 244.84 198.79 235.23 198.79 C 235.25 192.11 235.23 185.43 235.25 178.74 C 243.49 178.72 251.73 178.79 259.97 178.72 C 263.09 178.91 266.02 176.11 265.76 172.94 C 265.96 169.31 262.44 166.58 259.00 166.80 C 251.07 166.77 243.15 166.81 235.23 166.79 C 235.25 160.66 235.23 154.52 235.24 148.39 C 245.49 148.30 255.75 148.60 265.99 148.24 C 271.04 147.73 272.12 140.37 268.24 137.69 C 266.43 136.35 264.10 136.58 261.99 136.51 C 250.69 136.59 239.38 136.43 228.08 136.59 C 224.72 136.45 221.88 139.61 222.26 142.93 M 108.32 225.42 C 90.92 232.80 79.77 251.34 79.71 270.02 C 79.70 316.00 79.71 361.99 79.71 407.98 C 79.82 420.18 84.24 432.40 92.47 441.47 C 100.64 450.65 112.67 456.38 125.02 456.37 C 208.34 456.37 291.67 456.36 375.00 456.38 C 382.31 456.43 389.60 454.53 396.00 451.00 C 408.29 444.30 416.93 431.79 419.67 418.16 C 420.85 412.87 420.68 407.43 420.68 402.05 C 420.67 358.01 420.70 313.96 420.67 269.91 C 420.71 253.12 411.65 236.42 397.04 227.94 C 394.21 226.41 391.30 224.51 387.96 224.56 C 295.97 224.59 203.98 224.54 111.99 224.58 C 110.71 224.61 109.48 224.89 108.32 225.42 Z" />
<path fill="#ffffff" opacity="1.00" d=" M 262.22 20.35 C 285.80 19.86 309.43 20.32 333.03 20.12 C 334.84 20.27 337.18 19.77 338.46 21.45 C 341.12 24.24 339.42 30.40 335.05 29.83 C 311.33 29.86 287.61 29.87 263.89 29.83 C 258.68 30.47 257.58 21.78 262.22 20.35 Z" />
<path fill="#ffffff" opacity="1.00" d=" M 182.49 40.64 C 199.95 40.15 217.47 40.61 234.95 40.42 C 237.05 40.46 239.19 40.26 241.26 40.72 C 244.61 42.05 244.01 48.33 240.08 48.25 C 222.40 48.46 204.71 48.22 187.03 48.36 C 185.35 48.33 183.64 48.43 182.00 48.01 C 179.28 46.55 179.50 41.59 182.49 40.64 Z" />
<path fill="#ffffff" opacity="1.00" d=" M 262.30 59.42 C 286.54 58.98 310.83 59.32 335.09 59.25 C 339.95 58.78 341.35 66.26 337.50 68.51 C 335.76 69.16 333.86 69.04 332.04 69.10 C 309.34 68.99 286.63 69.19 263.94 69.01 C 258.66 69.52 257.56 60.87 262.30 59.42 Z" />
<path fill="#ffffff" opacity="1.00" d=" M 182.41 71.58 C 200.56 71.10 218.77 71.57 236.94 71.36 C 238.76 71.54 241.10 70.90 242.45 72.50 C 244.50 74.63 243.32 79.23 240.06 79.19 C 222.05 79.42 204.02 79.17 186.01 79.30 C 184.13 79.25 181.73 79.43 180.58 77.61 C 179.69 75.56 179.95 72.38 182.41 71.58 Z" />
<path fill="#ffffff" opacity="1.00" d=" M 260.31 98.39 C 261.56 96.47 264.03 96.67 266.03 96.62 C 289.00 96.70 311.98 96.56 334.96 96.69 C 340.64 96.31 341.33 105.35 336.14 106.70 C 311.72 106.69 287.30 106.65 262.87 106.72 C 259.51 105.66 258.12 101.15 260.31 98.39 Z" />
<path fill="#ffffff" opacity="1.00" d=" M 182.27 101.32 C 195.84 100.82 209.47 101.27 223.07 101.11 C 229.02 101.25 235.00 100.84 240.94 101.29 C 244.68 102.06 244.11 109.12 240.05 108.75 C 221.36 108.88 202.66 108.79 183.97 108.79 C 179.72 109.57 178.66 102.62 182.27 101.32 Z" />
<path fill="#ffffff" opacity="1.00" d=" M 95.21 148.39 C 102.81 148.43 110.41 148.35 118.02 148.41 C 120.77 148.24 122.97 150.27 124.46 152.36 C 127.92 157.48 127.04 164.55 123.70 169.48 C 122.45 170.85 121.19 172.84 119.12 172.79 C 111.15 172.92 103.17 172.78 95.19 172.84 C 95.20 164.69 95.18 156.54 95.21 148.39 Z" />
<path fill="#ffffff" opacity="1.00" d=" M 118.40 237.60 C 123.50 236.35 128.78 236.76 133.98 236.71 C 213.99 236.71 294.00 236.72 374.02 236.70 C 379.60 236.62 385.21 238.02 389.99 240.95 C 399.87 246.99 405.95 258.48 405.84 270.00 C 405.84 316.34 405.87 362.68 405.83 409.02 C 405.89 425.18 392.74 441.31 376.01 441.57 C 294.33 441.62 212.66 441.57 130.98 441.59 C 126.66 441.58 122.24 441.87 118.04 440.65 C 102.70 436.63 93.37 420.28 94.48 404.98 C 94.53 359.98 94.46 314.97 94.52 269.96 C 94.54 255.62 104.14 241.15 118.40 237.60 M 117.22 255.29 C 114.24 256.56 112.82 259.86 113.11 262.98 C 113.13 312.00 113.12 361.02 113.12 410.04 C 113.17 413.22 112.86 416.45 113.43 419.61 C 114.32 422.83 117.67 424.86 120.95 424.50 C 206.62 424.49 292.30 424.49 377.97 424.50 C 382.16 425.07 386.23 421.31 385.66 417.05 C 385.64 365.34 385.67 313.63 385.64 261.92 C 385.95 258.54 383.29 255.31 379.97 254.83 C 377.32 254.52 374.66 254.68 372.00 254.67 C 290.34 254.68 208.67 254.68 127.01 254.67 C 123.76 254.80 120.35 254.19 117.22 255.29 Z" />
<path fill="#ffffff" opacity="1.00" d=" M 127.14 268.44 C 208.66 268.54 290.19 268.53 371.71 268.44 C 371.85 315.85 371.76 363.26 371.76 410.67 C 290.20 410.66 208.64 410.62 127.08 410.69 C 126.72 376.13 127.08 341.56 126.93 306.99 C 127.06 294.14 126.66 281.28 127.14 268.44 M 202.13 276.84 C 198.47 285.68 194.43 294.41 191.49 303.52 C 195.40 303.42 194.23 297.64 196.99 295.97 C 200.91 295.71 204.86 295.78 208.77 296.11 C 210.17 298.64 210.11 303.08 213.52 303.61 C 212.13 297.29 208.88 291.56 206.68 285.50 C 205.20 282.62 204.87 278.89 202.13 276.84 M 141.07 277.70 C 141.40 286.11 140.99 294.53 141.26 302.94 C 141.77 303.09 142.78 303.38 143.29 303.52 C 143.35 299.77 143.32 296.03 143.33 292.28 C 146.92 292.49 150.67 291.75 154.15 292.75 C 157.71 293.95 156.22 298.23 157.20 300.96 C 157.62 302.31 159.21 304.26 160.68 302.95 C 158.05 299.28 159.96 293.77 155.73 291.11 C 157.22 289.57 159.42 288.27 159.46 285.87 C 160.37 282.19 157.77 278.07 153.97 277.65 C 149.68 277.33 145.36 277.37 141.07 277.70 M 169.58 277.52 C 169.50 286.12 169.49 294.72 169.58 303.33 C 174.97 303.26 180.37 303.51 185.75 303.13 C 185.45 302.73 184.87 301.93 184.58 301.53 C 180.29 301.17 175.98 301.51 171.68 301.39 C 171.68 297.98 171.68 294.57 171.70 291.17 C 175.56 291.12 179.43 291.30 183.29 291.07 C 183.29 290.56 183.29 289.52 183.29 289.01 C 179.41 288.78 175.51 289.01 171.63 288.83 C 171.69 285.70 171.69 282.57 171.67 279.45 C 176.28 279.39 180.90 279.52 185.51 279.31 L 185.04 277.73 C 179.91 277.17 174.73 277.60 169.58 277.52 M 221.70 277.35 C 221.64 286.01 221.67 294.66 221.69 303.32 C 226.92 303.29 232.16 303.45 237.40 303.19 L 236.79 301.79 C 232.55 300.86 228.08 301.67 223.76 301.34 C 223.74 293.55 223.87 285.75 223.73 277.96 C 223.22 277.81 222.21 277.50 221.70 277.35 M 256.24 277.88 L 255.67 279.17 C 258.73 279.37 261.80 279.34 264.87 279.31 C 264.98 287.26 264.71 295.23 264.99 303.18 C 265.52 303.18 266.58 303.19 267.12 303.20 C 267.40 295.24 267.13 287.27 267.24 279.31 C 270.29 279.34 273.34 279.36 276.39 279.20 C 276.27 276.81 273.55 277.72 272.07 277.46 C 266.80 277.74 261.42 276.95 256.24 277.88 M 284.38 278.11 C 284.19 286.37 284.20 294.65 284.38 302.91 C 284.84 303.01 285.78 303.21 286.25 303.31 C 286.55 294.78 286.47 286.23 286.30 277.71 L 285.00 277.35 L 284.38 278.11 M 296.95 278.92 C 296.84 286.98 296.78 295.06 296.98 303.13 C 297.50 303.12 298.52 303.10 299.03 303.09 C 299.35 296.02 298.94 288.94 299.24 281.88 C 302.50 286.54 305.15 291.66 308.90 295.96 C 312.32 291.44 315.01 286.41 318.49 281.93 C 318.63 289.13 318.40 296.34 318.62 303.54 C 319.11 303.34 320.09 302.93 320.57 302.73 C 320.87 297.50 320.58 292.25 320.68 287.01 C 320.61 283.65 321.07 280.21 320.17 276.92 C 315.45 281.11 313.07 287.26 309.04 292.04 C 304.67 287.82 302.24 281.55 298.05 276.95 C 297.77 277.44 297.22 278.43 296.95 278.92 M 331.07 277.70 C 331.29 286.21 331.19 294.73 331.13 303.24 C 336.54 303.36 341.97 303.43 347.38 303.19 L 346.77 301.87 C 342.47 300.76 337.79 301.69 333.35 301.41 C 333.32 297.99 333.31 294.58 333.32 291.17 C 337.27 291.11 341.23 291.32 345.17 291.04 C 345.16 290.54 345.14 289.52 345.13 289.02 C 341.18 288.77 337.22 289.01 333.27 288.85 C 333.33 285.71 333.33 282.56 333.33 279.42 C 337.80 279.26 342.31 279.81 346.74 279.15 L 347.43 277.77 C 341.99 277.31 336.51 277.36 331.07 277.70 M 136.46 329.81 C 127.74 332.94 125.97 345.57 131.96 352.01 C 136.60 357.32 146.06 356.97 150.40 351.43 C 154.19 346.55 154.33 339.22 150.90 334.10 C 147.83 329.47 141.54 328.06 136.46 329.81 M 339.60 332.63 C 334.66 337.43 334.32 345.98 338.70 351.26 C 343.23 356.60 351.75 357.12 357.37 353.19 C 357.31 349.62 357.33 346.05 357.32 342.49 C 354.16 342.98 349.59 340.88 347.55 344.10 C 350.09 344.47 352.67 344.45 355.24 344.46 C 355.23 347.01 355.22 349.58 355.22 352.14 C 351.03 354.23 345.54 354.49 341.90 351.17 C 336.60 346.97 336.57 337.95 341.87 333.74 C 345.85 330.07 351.88 330.85 356.32 333.21 C 356.32 332.67 356.32 331.57 356.32 331.03 C 351.17 327.97 344.04 328.56 339.60 332.63 M 162.08 329.69 C 162.36 338.13 162.02 346.58 162.24 355.03 C 162.73 355.06 163.70 355.13 164.19 355.16 C 164.43 351.55 164.25 347.92 164.29 344.31 C 167.55 344.27 170.82 344.50 174.07 344.17 C 180.36 342.48 181.11 332.23 174.90 329.95 C 170.70 329.07 166.33 329.48 162.08 329.69 M 187.77 329.58 C 187.70 338.15 187.71 346.72 187.76 355.28 C 193.11 355.33 198.46 355.40 203.80 355.23 L 203.18 353.59 C 198.86 353.15 194.50 353.47 190.16 353.44 C 190.07 350.03 190.08 346.62 190.04 343.22 C 194.05 343.12 198.06 343.29 202.07 343.00 C 201.93 342.59 201.65 341.77 201.51 341.36 C 197.91 340.33 193.86 341.18 190.08 340.92 C 190.07 337.74 190.07 334.57 190.12 331.40 C 194.69 331.42 199.26 331.54 203.82 331.28 L 203.21 329.68 C 198.08 329.24 192.91 329.52 187.77 329.58 M 212.47 329.52 C 212.46 338.04 212.13 346.59 212.61 355.10 L 214.42 355.61 C 214.62 351.84 214.56 348.08 214.54 344.31 C 217.90 344.34 221.29 344.06 224.64 344.46 C 230.48 345.45 225.35 356.26 232.35 355.14 C 231.69 354.13 231.02 353.13 230.34 352.15 C 230.40 348.79 229.88 345.15 226.94 343.03 C 228.54 341.67 230.43 340.22 230.67 337.96 C 231.61 334.25 228.90 329.87 224.96 329.62 C 220.81 329.30 216.63 329.53 212.47 329.52 M 243.98 340.16 C 242.04 345.29 239.46 350.21 238.07 355.54 C 241.54 355.11 241.45 350.50 242.91 347.95 C 247.01 347.81 251.12 347.84 255.22 347.92 C 256.20 350.30 257.06 352.73 258.16 355.06 C 258.72 355.12 259.85 355.22 260.41 355.27 C 258.37 349.60 255.92 344.08 253.68 338.49 C 252.27 335.19 251.25 331.69 249.16 328.74 C 246.71 332.17 245.74 336.37 243.98 340.16 M 265.56 331.19 C 268.62 331.36 271.68 331.34 274.74 331.32 C 274.82 339.26 274.57 347.20 274.85 355.13 C 275.38 355.18 276.46 355.29 276.99 355.34 C 276.86 347.33 276.82 339.31 277.01 331.31 C 279.87 331.30 282.74 331.49 285.59 331.14 L 286.29 329.76 C 280.88 329.24 275.44 329.57 270.01 329.46 C 268.48 329.76 265.68 328.73 265.56 331.19 M 294.13 329.92 C 294.08 338.39 294.25 346.87 294.06 355.35 C 294.59 355.29 295.64 355.18 296.17 355.13 C 296.41 346.68 296.35 338.22 296.20 329.78 C 295.68 329.81 294.65 329.88 294.13 329.92 M 306.83 329.70 C 306.63 338.31 306.70 346.94 306.82 355.55 L 308.59 355.09 C 308.90 347.50 308.81 339.88 308.33 332.30 C 312.98 339.66 318.54 346.40 323.60 353.48 C 324.41 354.15 325.59 356.60 326.69 354.97 C 326.93 346.65 326.79 338.30 326.75 329.98 L 325.98 329.37 L 324.88 329.83 C 324.56 336.94 324.96 344.07 324.70 351.19 C 319.69 344.97 315.11 338.40 310.33 332.00 C 309.39 331.04 308.57 328.67 306.83 329.70 M 178.45 382.32 C 174.95 384.01 174.18 389.36 176.84 392.11 C 180.26 395.86 186.79 394.77 189.45 399.46 C 190.89 402.78 187.16 405.84 184.04 405.73 C 180.64 406.18 177.68 404.16 175.41 401.88 C 174.86 402.43 174.32 402.99 173.79 403.56 C 177.37 407.23 182.94 409.00 187.82 406.96 C 191.68 405.52 193.00 400.53 190.94 397.14 C 187.87 392.89 181.37 393.94 178.08 389.99 C 175.71 386.76 179.63 382.79 183.03 383.20 C 186.26 382.70 188.78 385.00 191.38 386.47 C 192.11 383.86 189.55 382.38 187.52 381.67 C 184.56 380.80 181.20 380.83 178.45 382.32 M 225.59 383.46 C 222.95 385.98 223.29 390.70 226.15 392.91 C 229.28 395.06 233.31 395.31 236.44 397.46 C 238.57 398.90 238.96 402.20 237.05 404.00 C 234.05 406.53 229.26 406.30 226.31 403.82 C 225.22 403.25 223.64 401.17 222.58 402.98 C 225.92 408.89 236.12 409.68 239.95 403.85 C 240.82 401.34 240.69 398.20 238.81 396.18 C 235.83 393.71 231.75 393.45 228.48 391.52 C 227.26 390.73 225.93 389.61 226.13 387.99 C 225.64 384.80 229.21 383.03 231.91 383.19 C 235.15 382.73 237.49 385.27 240.24 386.42 C 240.73 383.74 238.13 382.33 236.00 381.64 C 232.55 380.67 228.28 380.82 225.59 383.46 M 247.41 381.64 C 247.26 381.99 246.96 382.69 246.81 383.04 C 249.80 383.58 252.86 383.24 255.87 383.40 C 255.79 391.33 255.68 399.27 255.91 407.19 C 256.44 407.18 257.51 407.17 258.04 407.16 C 258.28 399.24 258.15 391.31 258.08 383.39 C 261.06 383.26 264.08 383.55 267.05 383.08 C 267.75 381.16 265.00 381.61 264.00 381.47 C 258.47 381.58 252.92 381.26 247.41 381.64 M 197.77 381.97 C 200.11 386.52 203.86 390.18 206.48 394.56 C 206.99 398.74 206.51 403.00 206.72 407.21 C 207.19 407.28 208.13 407.41 208.59 407.48 C 208.97 403.28 208.56 399.06 208.85 394.87 C 211.32 390.17 215.30 386.42 217.73 381.68 L 216.05 381.35 C 212.80 384.48 210.62 388.61 207.94 392.24 C 204.69 388.78 202.52 384.46 199.17 381.10 L 197.77 381.97 M 275.07 381.70 C 275.28 390.20 275.20 398.72 275.12 407.23 C 280.55 407.37 285.98 407.43 291.40 407.18 L 290.75 405.86 C 286.45 404.76 281.79 405.69 277.35 405.41 C 277.32 402.00 277.32 398.59 277.31 395.18 C 281.33 395.16 285.35 395.20 289.37 395.11 C 289.28 394.59 289.08 393.55 288.99 393.03 C 285.10 392.76 281.20 392.99 277.30 392.90 C 277.32 389.74 277.32 386.58 277.33 383.42 C 282.01 383.38 286.70 383.59 291.38 383.23 L 290.78 381.86 C 285.63 381.06 280.28 381.50 275.07 381.70 M 299.84 381.79 C 299.64 390.26 299.66 398.74 299.84 407.21 C 300.32 407.18 301.29 407.12 301.78 407.09 C 301.94 400.04 301.73 392.99 301.86 385.94 C 305.58 390.19 307.55 395.94 311.79 399.65 C 315.35 395.39 317.76 390.29 321.31 386.01 C 321.41 393.03 320.96 400.10 321.51 407.11 L 323.28 407.61 C 323.55 398.88 323.37 390.14 323.39 381.40 L 322.01 381.62 C 318.16 385.98 315.59 391.34 311.96 395.89 L 311.33 396.00 C 308.41 392.08 305.88 387.89 303.15 383.84 C 302.22 382.94 301.52 380.30 299.84 381.79 Z" />
<path fill="#ffffff" opacity="1.00" d=" M 143.34 279.43 C 147.40 279.80 151.98 278.39 155.64 280.67 C 159.03 283.46 157.09 289.51 152.93 290.27 C 149.75 290.53 146.55 290.35 143.36 290.38 C 143.31 286.73 143.31 283.08 143.34 279.43 Z" />
<path fill="#ffffff" opacity="1.00" d=" M 197.17 293.73 C 199.05 289.56 200.49 285.19 202.51 281.09 C 204.30 285.29 205.95 289.55 207.79 293.73 C 204.25 293.78 200.71 293.78 197.17 293.73 Z" />
<path fill="#ffffff" opacity="1.00" d=" M 137.48 331.70 C 140.56 330.77 144.17 331.02 146.79 333.03 C 152.93 337.67 152.51 348.87 145.56 352.56 C 141.32 355.00 135.33 353.57 132.70 349.42 C 128.85 343.71 130.56 334.17 137.48 331.70 Z" />
<path fill="#ffffff" opacity="1.00" d=" M 164.30 331.43 C 167.34 331.49 170.43 331.17 173.45 331.67 C 176.90 332.67 177.84 337.19 176.13 340.01 C 173.54 343.95 168.21 341.89 164.33 342.39 C 164.28 338.73 164.28 335.08 164.30 331.43 Z" />
<path fill="#ffffff" opacity="1.00" d=" M 214.52 331.50 C 218.28 331.61 222.25 330.81 225.86 332.07 C 230.12 334.06 229.07 340.65 224.90 342.07 C 221.51 342.75 218.01 342.26 214.58 342.36 C 214.55 338.74 214.56 335.11 214.52 331.50 Z" />
<path fill="#ffffff" opacity="1.00" d=" M 243.90 345.74 C 245.57 341.46 247.14 337.13 249.13 332.99 C 250.85 337.28 252.56 341.56 254.39 345.80 C 250.89 345.74 247.39 345.77 243.90 345.74 Z" />
<path fill="#ffffff" opacity="1.00" d=" M 65.32 479.88 C 188.76 479.73 312.20 479.82 435.64 479.84 C 433.85 483.88 431.55 487.67 429.20 491.41 C 310.45 491.25 191.70 491.49 72.95 491.29 C 70.39 487.50 67.69 483.80 65.32 479.88 Z" />
</g>
<g id="#60a753ff">
<path fill="#60a753" opacity="1.00" d=" M 259.41 11.55 C 261.21 11.01 263.10 10.82 264.98 10.79 C 288.00 10.80 311.02 10.80 334.05 10.79 C 338.77 10.64 343.72 12.50 346.37 16.59 C 348.72 19.56 347.71 23.57 347.93 27.05 C 348.77 34.11 341.52 39.44 334.98 39.19 C 311.64 39.23 288.29 39.17 264.95 39.22 C 260.70 39.33 256.20 37.96 253.48 34.53 C 247.30 27.46 250.00 14.27 259.41 11.55 M 262.22 20.35 C 257.58 21.78 258.68 30.47 263.89 29.83 C 287.61 29.87 311.33 29.86 335.05 29.83 C 339.42 30.40 341.12 24.24 338.46 21.45 C 337.18 19.77 334.84 20.27 333.03 20.12 C 309.43 20.32 285.80 19.86 262.22 20.35 Z" />
<path fill="#60a753" opacity="1.00" d=" M 261.20 50.24 C 262.78 49.98 264.39 49.91 266.00 49.89 C 288.67 49.93 311.33 49.88 334.00 49.91 C 338.21 49.87 342.71 51.12 345.45 54.51 C 349.25 58.40 347.66 64.24 347.81 69.10 C 346.63 74.75 340.59 78.45 335.00 78.27 C 311.34 78.26 287.67 78.27 264.00 78.27 C 258.72 78.46 253.54 75.29 251.45 70.42 C 247.70 62.62 252.10 51.41 261.20 50.24 M 262.30 59.42 C 257.56 60.87 258.66 69.52 263.94 69.01 C 286.63 69.19 309.34 68.99 332.04 69.10 C 333.86 69.04 335.76 69.16 337.50 68.51 C 341.35 66.26 339.95 58.78 335.09 59.25 C 310.83 59.32 286.54 58.98 262.30 59.42 Z" />
<path fill="#60a753" opacity="1.00" d=" M 250.17 100.54 C 250.32 92.95 257.38 86.60 264.98 87.53 C 288.30 87.57 311.62 87.53 334.94 87.55 C 339.48 87.34 344.04 89.55 346.50 93.40 C 348.75 96.45 347.67 100.44 347.93 103.94 C 348.57 109.82 342.93 115.67 336.99 114.92 C 311.67 114.86 286.36 114.89 261.04 114.91 C 255.77 115.19 251.60 110.23 250.76 105.37 C 250.57 103.76 250.37 102.15 250.17 100.54 M 260.31 98.39 C 258.12 101.15 259.51 105.66 262.87 106.72 L 261.86 107.40 C 286.92 107.70 312.01 107.65 337.07 107.44 L 336.14 106.70 C 341.33 105.35 340.64 96.31 334.96 96.69 C 311.98 96.56 289.00 96.70 266.03 96.62 C 264.03 96.67 261.56 96.47 260.31 98.39 Z" />
</g>
<g id="#a9cea2ff">
<path fill="#a9cea2" opacity="1.00" d=" M 181.31 33.49 C 200.51 32.97 219.76 33.43 238.97 33.27 C 243.34 32.90 247.85 35.26 249.56 39.38 C 250.16 42.53 250.01 45.81 249.68 48.99 C 248.37 53.00 244.12 55.70 239.94 55.49 C 220.97 55.49 201.99 55.53 183.02 55.47 C 176.23 55.65 171.49 48.14 173.10 41.91 C 173.86 37.82 177.10 34.13 181.31 33.49 M 182.49 40.64 C 179.50 41.59 179.28 46.55 182.00 48.01 C 183.64 48.43 185.35 48.33 187.03 48.36 C 204.71 48.22 222.40 48.46 240.08 48.25 C 244.01 48.33 244.61 42.05 241.26 40.72 C 239.19 40.26 237.05 40.46 234.95 40.42 C 217.47 40.61 199.95 40.15 182.49 40.64 Z" />
<path fill="#a9cea2" opacity="1.00" d=" M 180.33 64.60 C 182.19 64.19 184.11 64.22 186.01 64.18 C 204.03 64.26 222.05 64.14 240.08 64.24 C 244.85 64.06 250.09 67.88 249.91 72.96 C 249.81 76.10 250.57 79.74 248.38 82.36 C 246.48 85.00 243.25 86.49 240.01 86.43 C 221.33 86.47 202.64 86.43 183.95 86.45 C 179.62 86.72 175.35 84.08 173.81 80.00 C 171.10 74.29 174.08 66.37 180.33 64.60 M 182.41 71.58 C 179.95 72.38 179.69 75.56 180.58 77.61 C 181.73 79.43 184.13 79.25 186.01 79.30 C 204.02 79.17 222.05 79.42 240.06 79.19 C 243.32 79.23 244.50 74.63 242.45 72.50 C 241.10 70.90 238.76 71.54 236.94 71.36 C 218.77 71.57 200.56 71.10 182.41 71.58 Z" />
<path fill="#a9cea2" opacity="1.00" d=" M 173.62 100.73 C 175.04 96.37 179.52 93.61 184.02 93.76 C 202.34 93.71 220.67 93.76 238.99 93.74 C 243.78 93.40 248.09 96.35 250.17 100.54 C 250.37 102.15 250.57 103.76 250.76 105.37 C 250.18 109.95 247.37 115.69 241.99 115.43 C 221.32 115.33 200.64 115.55 179.98 115.32 C 173.98 113.91 171.39 106.09 173.62 100.73 M 182.27 101.32 C 178.66 102.62 179.72 109.57 183.97 108.79 C 202.66 108.79 221.36 108.88 240.05 108.75 C 244.11 109.12 244.68 102.06 240.94 101.29 C 235.00 100.84 229.02 101.25 223.07 101.11 C 209.47 101.27 195.84 100.82 182.27 101.32 Z" />
<path fill="#a9cea2" opacity="1.00" d=" M 108.32 225.42 C 109.48 224.89 110.71 224.61 111.99 224.58 C 203.98 224.54 295.97 224.59 387.96 224.56 C 391.30 224.51 394.21 226.41 397.04 227.94 C 411.65 236.42 420.71 253.12 420.67 269.91 C 420.70 313.96 420.67 358.01 420.68 402.05 C 420.68 407.43 420.85 412.87 419.67 418.16 C 416.93 431.79 408.29 444.30 396.00 451.00 C 389.60 454.53 382.31 456.43 375.00 456.38 C 291.67 456.36 208.34 456.37 125.02 456.37 C 112.67 456.38 100.64 450.65 92.47 441.47 C 84.24 432.40 79.82 420.18 79.71 407.98 C 79.71 361.99 79.70 316.00 79.71 270.02 C 79.77 251.34 90.92 232.80 108.32 225.42 M 118.40 237.60 C 104.14 241.15 94.54 255.62 94.52 269.96 C 94.46 314.97 94.53 359.98 94.48 404.98 C 93.37 420.28 102.70 436.63 118.04 440.65 C 122.24 441.87 126.66 441.58 130.98 441.59 C 212.66 441.57 294.33 441.62 376.01 441.57 C 392.74 441.31 405.89 425.18 405.83 409.02 C 405.87 362.68 405.84 316.34 405.84 270.00 C 405.95 258.48 399.87 246.99 389.99 240.95 C 385.21 238.02 379.60 236.62 374.02 236.70 C 294.00 236.72 213.99 236.71 133.98 236.71 C 128.78 236.76 123.50 236.35 118.40 237.60 Z" />
<path fill="#a9cea2" opacity="1.00" d=" M 117.22 255.29 C 120.35 254.19 123.76 254.80 127.01 254.67 C 208.67 254.68 290.34 254.68 372.00 254.67 C 374.66 254.68 377.32 254.52 379.97 254.83 C 383.29 255.31 385.95 258.54 385.64 261.92 C 385.67 313.63 385.64 365.34 385.66 417.05 C 386.23 421.31 382.16 425.07 377.97 424.50 C 292.30 424.49 206.62 424.49 120.95 424.50 C 117.67 424.86 114.32 422.83 113.43 419.61 C 112.86 416.45 113.17 413.22 113.12 410.04 C 113.12 361.02 113.13 312.00 113.11 262.98 C 112.82 259.86 114.24 256.56 117.22 255.29 M 127.14 268.44 C 126.66 281.28 127.06 294.14 126.93 306.99 C 127.08 341.56 126.72 376.13 127.08 410.69 C 208.64 410.62 290.20 410.66 371.76 410.67 C 371.76 363.26 371.85 315.85 371.71 268.44 C 290.19 268.53 208.66 268.54 127.14 268.44 Z" />
<path fill="#a9cea2" opacity="1.00" d=" M 50.82 477.17 C 48.46 473.66 52.03 468.88 56.04 469.49 C 185.03 469.42 314.03 469.51 443.02 469.45 C 445.03 469.52 447.43 469.47 448.73 471.32 C 450.60 473.37 449.94 476.38 448.61 478.54 C 444.52 485.67 440.52 492.87 436.42 500.00 L 66.16 500.00 C 59.16 493.84 55.55 485.00 50.82 477.17 M 65.32 479.88 C 67.69 483.80 70.39 487.50 72.95 491.29 C 191.70 491.49 310.45 491.25 429.20 491.41 C 431.55 487.67 433.85 483.88 435.64 479.84 C 312.20 479.82 188.76 479.73 65.32 479.88 Z" />
</g>
<g id="#356a33ff">
<path fill="#356a33" opacity="1.00" d=" M 262.87 106.72 C 287.30 106.65 311.72 106.69 336.14 106.70 L 337.07 107.44 C 312.01 107.65 286.92 107.70 261.86 107.40 L 262.87 106.72 Z" />
<path fill="#356a33" opacity="1.00" d=" M 202.13 276.84 C 204.87 278.89 205.20 282.62 206.68 285.50 C 208.88 291.56 212.13 297.29 213.52 303.61 C 210.11 303.08 210.17 298.64 208.77 296.11 C 204.86 295.78 200.91 295.71 196.99 295.97 C 194.23 297.64 195.40 303.42 191.49 303.52 C 194.43 294.41 198.47 285.68 202.13 276.84 M 197.17 293.73 C 200.71 293.78 204.25 293.78 207.79 293.73 C 205.95 289.55 204.30 285.29 202.51 281.09 C 200.49 285.19 199.05 289.56 197.17 293.73 Z" />
<path fill="#356a33" opacity="1.00" d=" M 141.07 277.70 C 145.36 277.37 149.68 277.33 153.97 277.65 C 157.77 278.07 160.37 282.19 159.46 285.87 C 159.42 288.27 157.22 289.57 155.73 291.11 C 159.96 293.77 158.05 299.28 160.68 302.95 C 159.21 304.26 157.62 302.31 157.20 300.96 C 156.22 298.23 157.71 293.95 154.15 292.75 C 150.67 291.75 146.92 292.49 143.33 292.28 C 143.32 296.03 143.35 299.77 143.29 303.52 C 142.78 303.38 141.77 303.09 141.26 302.94 C 140.99 294.53 141.40 286.11 141.07 277.70 M 143.34 279.43 C 143.31 283.08 143.31 286.73 143.36 290.38 C 146.55 290.35 149.75 290.53 152.93 290.27 C 157.09 289.51 159.03 283.46 155.64 280.67 C 151.98 278.39 147.40 279.80 143.34 279.43 Z" />
<path fill="#356a33" opacity="1.00" d=" M 169.58 277.52 C 174.73 277.60 179.91 277.17 185.04 277.73 L 185.51 279.31 C 180.90 279.52 176.28 279.39 171.67 279.45 C 171.69 282.57 171.69 285.70 171.63 288.83 C 175.51 289.01 179.41 288.78 183.29 289.01 C 183.29 289.52 183.29 290.56 183.29 291.07 C 179.43 291.30 175.56 291.12 171.70 291.17 C 171.68 294.57 171.68 297.98 171.68 301.39 C 175.98 301.51 180.29 301.17 184.58 301.53 C 184.87 301.93 185.45 302.73 185.75 303.13 C 180.37 303.51 174.97 303.26 169.58 303.33 C 169.49 294.72 169.50 286.12 169.58 277.52 Z" />
<path fill="#356a33" opacity="1.00" d=" M 221.70 277.35 C 222.21 277.50 223.22 277.81 223.73 277.96 C 223.87 285.75 223.74 293.55 223.76 301.34 C 228.08 301.67 232.55 300.86 236.79 301.79 L 237.40 303.19 C 232.16 303.45 226.92 303.29 221.69 303.32 C 221.67 294.66 221.64 286.01 221.70 277.35 Z" />
<path fill="#356a33" opacity="1.00" d=" M 256.24 277.88 C 261.42 276.95 266.80 277.74 272.07 277.46 C 273.55 277.72 276.27 276.81 276.39 279.20 C 273.34 279.36 270.29 279.34 267.24 279.31 C 267.13 287.27 267.40 295.24 267.12 303.20 C 266.58 303.19 265.52 303.18 264.99 303.18 C 264.71 295.23 264.98 287.26 264.87 279.31 C 261.80 279.34 258.73 279.37 255.67 279.17 L 256.24 277.88 Z" />
<path fill="#356a33" opacity="1.00" d=" M 284.38 278.11 L 285.00 277.35 L 286.30 277.71 C 286.47 286.23 286.55 294.78 286.25 303.31 C 285.78 303.21 284.84 303.01 284.38 302.91 C 284.20 294.65 284.19 286.37 284.38 278.11 Z" />
<path fill="#356a33" opacity="1.00" d=" M 296.95 278.92 C 297.22 278.43 297.77 277.44 298.05 276.95 C 302.24 281.55 304.67 287.82 309.04 292.04 C 313.07 287.26 315.45 281.11 320.17 276.92 C 321.07 280.21 320.61 283.65 320.68 287.01 C 320.58 292.25 320.87 297.50 320.57 302.73 C 320.09 302.93 319.11 303.34 318.62 303.54 C 318.40 296.34 318.63 289.13 318.49 281.93 C 315.01 286.41 312.32 291.44 308.90 295.96 C 305.15 291.66 302.50 286.54 299.24 281.88 C 298.94 288.94 299.35 296.02 299.03 303.09 C 298.52 303.10 297.50 303.12 296.98 303.13 C 296.78 295.06 296.84 286.98 296.95 278.92 Z" />
<path fill="#356a33" opacity="1.00" d=" M 331.07 277.70 C 336.51 277.36 341.99 277.31 347.43 277.77 L 346.74 279.15 C 342.31 279.81 337.80 279.26 333.33 279.42 C 333.33 282.56 333.33 285.71 333.27 288.85 C 337.22 289.01 341.18 288.77 345.13 289.02 C 345.14 289.52 345.16 290.54 345.17 291.04 C 341.23 291.32 337.27 291.11 333.32 291.17 C 333.31 294.58 333.32 297.99 333.35 301.41 C 337.79 301.69 342.47 300.76 346.77 301.87 L 347.38 303.19 C 341.97 303.43 336.54 303.36 331.13 303.24 C 331.19 294.73 331.29 286.21 331.07 277.70 Z" />
<path fill="#356a33" opacity="1.00" d=" M 136.46 329.81 C 141.54 328.06 147.83 329.47 150.90 334.10 C 154.33 339.22 154.19 346.55 150.40 351.43 C 146.06 356.97 136.60 357.32 131.96 352.01 C 125.97 345.57 127.74 332.94 136.46 329.81 M 137.48 331.70 C 130.56 334.17 128.85 343.71 132.70 349.42 C 135.33 353.57 141.32 355.00 145.56 352.56 C 152.51 348.87 152.93 337.67 146.79 333.03 C 144.17 331.02 140.56 330.77 137.48 331.70 Z" />
<path fill="#356a33" opacity="1.00" d=" M 339.60 332.63 C 344.04 328.56 351.17 327.97 356.32 331.03 C 356.32 331.57 356.32 332.67 356.32 333.21 C 351.88 330.85 345.85 330.07 341.87 333.74 C 336.57 337.95 336.60 346.97 341.90 351.17 C 345.54 354.49 351.03 354.23 355.22 352.14 C 355.22 349.58 355.23 347.01 355.24 344.46 C 352.67 344.45 350.09 344.47 347.55 344.10 C 349.59 340.88 354.16 342.98 357.32 342.49 C 357.33 346.05 357.31 349.62 357.37 353.19 C 351.75 357.12 343.23 356.60 338.70 351.26 C 334.32 345.98 334.66 337.43 339.60 332.63 Z" />
<path fill="#356a33" opacity="1.00" d=" M 162.08 329.69 C 166.33 329.48 170.70 329.07 174.90 329.95 C 181.11 332.23 180.36 342.48 174.07 344.17 C 170.82 344.50 167.55 344.27 164.29 344.31 C 164.25 347.92 164.43 351.55 164.19 355.16 C 163.70 355.13 162.73 355.06 162.24 355.03 C 162.02 346.58 162.36 338.13 162.08 329.69 M 164.30 331.43 C 164.28 335.08 164.28 338.73 164.33 342.39 C 168.21 341.89 173.54 343.95 176.13 340.01 C 177.84 337.19 176.90 332.67 173.45 331.67 C 170.43 331.17 167.34 331.49 164.30 331.43 Z" />
<path fill="#356a33" opacity="1.00" d=" M 187.77 329.58 C 192.91 329.52 198.08 329.24 203.21 329.68 L 203.82 331.28 C 199.26 331.54 194.69 331.42 190.12 331.40 C 190.07 334.57 190.07 337.74 190.08 340.92 C 193.86 341.18 197.91 340.33 201.51 341.36 C 201.65 341.77 201.93 342.59 202.07 343.00 C 198.06 343.29 194.05 343.12 190.04 343.22 C 190.08 346.62 190.07 350.03 190.16 353.44 C 194.50 353.47 198.86 353.15 203.18 353.59 L 203.80 355.23 C 198.46 355.40 193.11 355.33 187.76 355.28 C 187.71 346.72 187.70 338.15 187.77 329.58 Z" />
<path fill="#356a33" opacity="1.00" d=" M 212.47 329.52 C 216.63 329.53 220.81 329.30 224.96 329.62 C 228.90 329.87 231.61 334.25 230.67 337.96 C 230.43 340.22 228.54 341.67 226.94 343.03 C 229.88 345.15 230.40 348.79 230.34 352.15 C 231.02 353.13 231.69 354.13 232.35 355.14 C 225.35 356.26 230.48 345.45 224.64 344.46 C 221.29 344.06 217.90 344.34 214.54 344.31 C 214.56 348.08 214.62 351.84 214.42 355.61 L 212.61 355.10 C 212.13 346.59 212.46 338.04 212.47 329.52 M 214.52 331.50 C 214.56 335.11 214.55 338.74 214.58 342.36 C 218.01 342.26 221.51 342.75 224.90 342.07 C 229.07 340.65 230.12 334.06 225.86 332.07 C 222.25 330.81 218.28 331.61 214.52 331.50 Z" />
<path fill="#356a33" opacity="1.00" d=" M 243.98 340.16 C 245.74 336.37 246.71 332.17 249.16 328.74 C 251.25 331.69 252.27 335.19 253.68 338.49 C 255.92 344.08 258.37 349.60 260.41 355.27 C 259.85 355.22 258.72 355.12 258.16 355.06 C 257.06 352.73 256.20 350.30 255.22 347.92 C 251.12 347.84 247.01 347.81 242.91 347.95 C 241.45 350.50 241.54 355.11 238.07 355.54 C 239.46 350.21 242.04 345.29 243.98 340.16 M 243.90 345.74 C 247.39 345.77 250.89 345.74 254.39 345.80 C 252.56 341.56 250.85 337.28 249.13 332.99 C 247.14 337.13 245.57 341.46 243.90 345.74 Z" />
<path fill="#356a33" opacity="1.00" d=" M 265.56 331.19 C 265.68 328.73 268.48 329.76 270.01 329.46 C 275.44 329.57 280.88 329.24 286.29 329.76 L 285.59 331.14 C 282.74 331.49 279.87 331.30 277.01 331.31 C 276.82 339.31 276.86 347.33 276.99 355.34 C 276.46 355.29 275.38 355.18 274.85 355.13 C 274.57 347.20 274.82 339.26 274.74 331.32 C 271.68 331.34 268.62 331.36 265.56 331.19 Z" />
<path fill="#356a33" opacity="1.00" d=" M 294.13 329.92 C 294.65 329.88 295.68 329.81 296.20 329.78 C 296.35 338.22 296.41 346.68 296.17 355.13 C 295.64 355.18 294.59 355.29 294.06 355.35 C 294.25 346.87 294.08 338.39 294.13 329.92 Z" />
<path fill="#356a33" opacity="1.00" d=" M 306.83 329.70 C 308.57 328.67 309.39 331.04 310.33 332.00 C 315.11 338.40 319.69 344.97 324.70 351.19 C 324.96 344.07 324.56 336.94 324.88 329.83 L 325.98 329.37 L 326.75 329.98 C 326.79 338.30 326.93 346.65 326.69 354.97 C 325.59 356.60 324.41 354.15 323.60 353.48 C 318.54 346.40 312.98 339.66 308.33 332.30 C 308.81 339.88 308.90 347.50 308.59 355.09 L 306.82 355.55 C 306.70 346.94 306.63 338.31 306.83 329.70 Z" />
<path fill="#356a33" opacity="1.00" d=" M 178.45 382.32 C 181.20 380.83 184.56 380.80 187.52 381.67 C 189.55 382.38 192.11 383.86 191.38 386.47 C 188.78 385.00 186.26 382.70 183.03 383.20 C 179.63 382.79 175.71 386.76 178.08 389.99 C 181.37 393.94 187.87 392.89 190.94 397.14 C 193.00 400.53 191.68 405.52 187.82 406.96 C 182.94 409.00 177.37 407.23 173.79 403.56 C 174.32 402.99 174.86 402.43 175.41 401.88 C 177.68 404.16 180.64 406.18 184.04 405.73 C 187.16 405.84 190.89 402.78 189.45 399.46 C 186.79 394.77 180.26 395.86 176.84 392.11 C 174.18 389.36 174.95 384.01 178.45 382.32 Z" />
<path fill="#356a33" opacity="1.00" d=" M 225.59 383.46 C 228.28 380.82 232.55 380.67 236.00 381.64 C 238.13 382.33 240.73 383.74 240.24 386.42 C 237.49 385.27 235.15 382.73 231.91 383.19 C 229.21 383.03 225.64 384.80 226.13 387.99 C 225.93 389.61 227.26 390.73 228.48 391.52 C 231.75 393.45 235.83 393.71 238.81 396.18 C 240.69 398.20 240.82 401.34 239.95 403.85 C 236.12 409.68 225.92 408.89 222.58 402.98 C 223.64 401.17 225.22 403.25 226.31 403.82 C 229.26 406.30 234.05 406.53 237.05 404.00 C 238.96 402.20 238.57 398.90 236.44 397.46 C 233.31 395.31 229.28 395.06 226.15 392.91 C 223.29 390.70 222.95 385.98 225.59 383.46 Z" />
<path fill="#356a33" opacity="1.00" d=" M 247.41 381.64 C 252.92 381.26 258.47 381.58 264.00 381.47 C 265.00 381.61 267.75 381.16 267.05 383.08 C 264.08 383.55 261.06 383.26 258.08 383.39 C 258.15 391.31 258.28 399.24 258.04 407.16 C 257.51 407.17 256.44 407.18 255.91 407.19 C 255.68 399.27 255.79 391.33 255.87 383.40 C 252.86 383.24 249.80 383.58 246.81 383.04 C 246.96 382.69 247.26 381.99 247.41 381.64 Z" />
<path fill="#356a33" opacity="1.00" d=" M 197.77 381.97 L 199.17 381.10 C 202.52 384.46 204.69 388.78 207.94 392.24 C 210.62 388.61 212.80 384.48 216.05 381.35 L 217.73 381.68 C 215.30 386.42 211.32 390.17 208.85 394.87 C 208.56 399.06 208.97 403.28 208.59 407.48 C 208.13 407.41 207.19 407.28 206.72 407.21 C 206.51 403.00 206.99 398.74 206.48 394.56 C 203.86 390.18 200.11 386.52 197.77 381.97 Z" />
<path fill="#356a33" opacity="1.00" d=" M 275.07 381.70 C 280.28 381.50 285.63 381.06 290.78 381.86 L 291.38 383.23 C 286.70 383.59 282.01 383.38 277.33 383.42 C 277.32 386.58 277.32 389.74 277.30 392.90 C 281.20 392.99 285.10 392.76 288.99 393.03 C 289.08 393.55 289.28 394.59 289.37 395.11 C 285.35 395.20 281.33 395.16 277.31 395.18 C 277.32 398.59 277.32 402.00 277.35 405.41 C 281.79 405.69 286.45 404.76 290.75 405.86 L 291.40 407.18 C 285.98 407.43 280.55 407.37 275.12 407.23 C 275.20 398.72 275.28 390.20 275.07 381.70 Z" />
<path fill="#356a33" opacity="1.00" d=" M 299.84 381.79 C 301.52 380.30 302.22 382.94 303.15 383.84 C 305.88 387.89 308.41 392.08 311.33 396.00 L 311.96 395.89 C 315.59 391.34 318.16 385.98 322.01 381.62 L 323.39 381.40 C 323.37 390.14 323.55 398.88 323.28 407.61 L 321.51 407.11 C 320.96 400.10 321.41 393.03 321.31 386.01 C 317.76 390.29 315.35 395.39 311.79 399.65 C 307.55 395.94 305.58 390.19 301.86 385.94 C 301.73 392.99 301.94 400.04 301.78 407.09 C 301.29 407.12 300.32 407.18 299.84 407.21 C 299.66 398.74 299.64 390.26 299.84 381.79 Z" />
</g>
<g id="#000000ff">
<path fill="#000000" opacity="1.00" d=" M 283.30 142.04 C 283.36 136.28 292.02 134.39 295.03 139.00 C 303.05 150.79 310.54 162.96 318.52 174.78 C 319.44 174.38 319.74 173.30 320.34 172.58 C 327.36 161.85 334.59 151.26 341.66 140.56 C 342.89 138.59 344.64 136.57 347.14 136.45 C 350.88 135.88 354.48 139.32 354.24 143.05 C 354.25 163.38 354.25 183.71 354.25 204.04 C 354.34 205.78 353.57 207.36 353.00 208.95 C 349.32 212.08 341.96 211.29 341.35 205.73 C 341.10 190.97 341.38 176.19 341.22 161.42 C 334.72 170.27 329.19 179.82 322.90 188.81 C 320.48 191.88 315.69 191.75 313.33 188.69 C 307.11 179.52 301.60 169.88 295.37 160.72 C 294.88 175.78 295.57 190.87 295.03 205.91 C 294.67 210.70 288.00 212.46 284.94 209.11 C 283.16 207.57 283.22 205.10 283.24 202.96 C 283.31 182.66 283.17 162.34 283.30 142.04 Z" />
<path fill="#000000" opacity="1.00" d=" M 376.65 139.97 C 387.03 134.20 400.12 133.98 410.84 139.00 C 414.12 140.63 417.68 142.61 419.42 145.99 C 421.42 150.42 416.72 155.92 412.12 153.94 C 405.93 149.78 398.52 146.49 390.90 147.55 C 387.31 147.99 383.57 149.34 381.44 152.42 C 378.74 156.23 380.44 162.19 384.73 164.04 C 394.47 168.92 406.68 167.46 415.45 174.59 C 420.43 178.37 421.82 184.99 421.48 190.93 C 421.37 197.97 416.83 204.39 410.77 207.73 C 402.92 212.38 393.36 212.45 384.60 211.04 C 378.15 209.61 371.55 206.61 367.56 201.16 C 364.14 196.38 370.60 189.32 375.52 192.73 C 379.43 195.44 383.30 198.53 388.13 199.39 C 394.38 200.32 401.75 200.38 406.62 195.68 C 410.63 192.39 409.19 185.50 404.94 183.04 C 395.78 177.47 383.69 179.80 375.11 172.88 C 365.17 165.45 365.71 149.13 374.95 141.32 C 375.59 141.68 376.43 143.21 377.22 142.23 C 378.08 141.53 376.94 140.64 376.65 139.97 Z" />
<path fill="#000000" opacity="1.00" d=" M 81.93 143.94 C 81.69 140.39 84.07 136.33 88.02 136.59 C 99.00 136.51 109.99 136.44 120.96 136.63 C 134.56 137.54 143.73 153.42 139.03 165.88 C 137.59 170.88 133.70 174.44 130.10 177.93 C 134.47 180.84 137.09 185.90 137.31 191.11 C 137.71 194.67 137.46 199.02 140.96 201.14 C 143.94 203.16 144.23 208.04 141.02 209.98 C 137.04 212.14 131.84 210.40 129.15 206.97 C 125.36 202.55 125.30 196.45 124.82 190.96 C 124.84 186.94 120.83 183.94 117.05 183.75 C 109.82 183.43 102.57 183.82 95.33 183.55 C 95.00 190.36 95.30 197.18 95.19 203.99 C 95.10 206.13 94.59 208.54 92.80 209.92 C 88.57 212.40 81.77 209.47 81.96 204.15 C 81.83 184.08 81.88 164.00 81.93 143.94 M 95.21 148.39 C 95.18 156.54 95.20 164.69 95.19 172.84 C 103.17 172.78 111.15 172.92 119.12 172.79 C 121.19 172.84 122.45 170.85 123.70 169.48 C 127.04 164.55 127.92 157.48 124.46 152.36 C 122.97 150.27 120.77 148.24 118.02 148.41 C 110.41 148.35 102.81 148.43 95.21 148.39 Z" />
<path fill="#000000" opacity="1.00" d=" M 151.97 146.96 C 149.25 143.24 150.69 136.61 156.00 136.62 C 171.98 136.42 187.97 136.56 203.96 136.55 C 207.17 136.22 210.78 138.52 210.55 142.04 C 211.14 145.36 208.33 148.44 205.01 148.33 C 199.11 148.50 193.20 148.35 187.29 148.39 C 187.28 166.94 187.28 185.49 187.29 204.04 C 187.47 205.82 186.67 207.40 185.96 208.97 C 184.10 209.94 182.13 211.05 179.93 210.76 C 176.42 210.84 173.37 207.50 173.75 204.01 C 173.75 185.47 173.76 166.93 173.75 148.39 C 168.20 148.37 162.65 148.44 157.10 148.38 C 155.25 148.50 153.60 147.70 151.97 146.96 Z" />
<path fill="#000000" opacity="1.00" d=" M 222.26 142.93 C 221.88 139.61 224.72 136.45 228.08 136.59 C 239.38 136.43 250.69 136.59 261.99 136.51 C 264.10 136.58 266.43 136.35 268.24 137.69 C 272.12 140.37 271.04 147.73 265.99 148.24 C 255.75 148.60 245.49 148.30 235.24 148.39 C 235.23 154.52 235.25 160.66 235.23 166.79 C 243.15 166.81 251.07 166.77 259.00 166.80 C 262.44 166.58 265.96 169.31 265.76 172.94 C 266.02 176.11 263.09 178.91 259.97 178.72 C 251.73 178.79 243.49 178.72 235.25 178.74 C 235.23 185.43 235.25 192.11 235.23 198.79 C 244.84 198.79 254.44 198.76 264.05 198.80 C 267.71 198.68 271.30 202.13 270.48 205.91 C 270.26 209.03 266.98 211.04 264.03 210.74 C 252.04 210.73 240.04 210.78 228.04 210.72 C 225.00 210.83 222.18 208.05 222.28 205.00 C 222.22 184.31 222.26 163.62 222.26 142.93 Z" />
</g>
</svg>
